<svg width="160" height="66" viewBox="0 0 160 66" fill="none" xmlns="http://www.w3.org/2000/svg">
<rect x="5.15149" y="5.02063" width="152.308" height="57.5691" fill="white"/>
<path d="M0.788452 33.3763V65.9256H80.1154H159.442V33.3763V0.826905H80.1154H0.788452V33.3763ZM36.0889 9.50038C40.6304 9.89116 44.6562 11.2446 48.2954 13.5893C54.4531 17.5448 58.4195 23.5781 59.5399 30.6598C59.7581 32.0609 59.8374 34.7488 59.6986 36.188C58.5285 48.4929 48.3251 58.0432 35.5832 58.7676C27.3531 59.2346 19.2518 55.7462 14.0261 49.4841C12.5189 47.6827 10.8134 44.7661 9.96063 42.5358C9.0682 40.2102 8.54266 37.5033 8.45342 34.8059C8.14602 25.1793 13.7782 16.2581 22.8413 11.9785C26.9961 10.0246 31.7557 9.12866 36.0889 9.50038ZM145.144 19.4701C147.95 20.0229 150.171 21.9196 151.133 24.5598L151.46 25.4653V34.8536C151.46 45.4429 151.51 44.709 150.667 46.3388C150.151 47.3491 149.457 48.1974 148.604 48.8646C147.93 49.3983 146.542 50.0941 145.61 50.361C145.044 50.523 143.071 50.5326 101.91 50.5516L58.7963 50.5802V50.199V49.8177H101.663C144.162 49.8177 144.539 49.8177 145.322 49.6271C145.748 49.5223 146.482 49.2554 146.948 49.0362C148.624 48.2546 150.032 46.5294 150.518 44.709C150.706 44.0036 150.716 43.6129 150.716 34.9489C150.716 26.285 150.706 25.8942 150.518 25.1889C150.022 23.3112 148.614 21.6337 146.849 20.814C145.114 20.0039 149.586 20.0801 101.583 20.0801H58.7963V19.6989V19.3176H101.583C140.324 19.3176 144.449 19.3367 145.144 19.4701ZM78.3404 24.9506C79.4411 25.2079 80.8095 25.8561 81.6027 26.4851C82.3464 27.0856 82.8323 27.6575 82.753 27.8481C82.6836 28.0197 81.0177 29.2301 80.8392 29.2301C80.7698 29.2301 80.4327 28.9537 80.0856 28.6201C79.4113 27.9625 78.2512 27.3525 77.2497 27.1333C76.0003 26.8569 73.9874 27.219 72.6884 27.9625C71.3398 28.7345 70.14 30.3262 69.6938 31.9656C69.3864 33.0522 69.3864 34.8917 69.6938 35.9974C70.4077 38.5803 72.4207 40.3913 75.0583 40.8202C77.448 41.211 79.3717 40.5724 80.7599 38.9235C81.0078 38.628 81.2656 38.3802 81.3251 38.3802C81.4441 38.3802 82.9116 39.3619 83.0802 39.5621C83.2785 39.7813 83.1298 40.0577 82.4158 40.7821C81.3251 41.8877 80.155 42.5453 78.509 42.9743C77.3488 43.2793 75.207 43.2793 73.9179 42.9743C72.7479 42.6979 71.0324 41.8782 70.1797 41.2014C67.8494 39.3428 66.5703 36.4263 66.7587 33.3953C66.8281 32.2897 67.0958 31.1364 67.4627 30.3358C67.6908 29.8401 67.7404 29.7925 67.9883 29.8211C68.2262 29.8497 68.2659 29.8878 68.256 30.1356C68.2461 30.2881 68.1271 30.7266 67.9883 31.0887C67.6115 32.1086 67.4826 33.0713 67.552 34.4533C67.7007 37.7606 69.4657 40.3532 72.5 41.7066C72.9462 41.9163 73.5907 42.1546 73.9179 42.2403C74.7509 42.4596 76.8729 42.5358 77.7653 42.3833C79.2923 42.126 80.7698 41.4016 81.7812 40.4008L82.3167 39.8766L82.0886 39.705C81.5036 39.2761 81.5135 39.2761 80.7103 40.0196C79.4708 41.1728 78.2512 41.6208 76.3275 41.6208C75.0186 41.6208 74.0469 41.4302 73.0255 40.9727C71.4588 40.2769 70.2491 39.1046 69.4955 37.57C68.8609 36.2738 68.7617 35.7781 68.7716 33.9481C68.7716 32.4422 68.7914 32.2706 69.0493 31.5177C69.317 30.717 69.8425 29.6972 70.2193 29.2301C70.7151 28.6106 71.7464 27.7051 72.381 27.3429C73.8684 26.4851 75.8119 26.1134 77.2893 26.3993C78.3008 26.5995 79.6989 27.2572 80.4128 27.8767L80.9582 28.3533L81.3548 28.0578C81.573 27.8958 81.7713 27.7433 81.8011 27.7242C81.9399 27.6098 80.5715 26.5995 79.7584 26.2183C78.5685 25.6559 77.686 25.4748 76.1986 25.4843C73.7295 25.4843 71.6373 26.3231 69.9814 27.9529C69.664 28.2675 69.3567 28.5915 69.2773 28.6869C69.079 28.9537 68.6725 28.868 68.6328 28.5534C68.613 28.3723 68.7518 28.1626 69.2178 27.6765C70.5862 26.2278 72.3512 25.2842 74.3642 24.8934C75.4252 24.6932 77.3588 24.7123 78.3404 24.9506ZM114.464 25.0745C114.89 25.2175 115.446 25.4462 115.693 25.5797C116.308 25.9323 117.399 26.9236 117.399 27.1428C117.399 27.3144 115.693 28.6583 115.475 28.6583C115.416 28.6583 115.128 28.42 114.841 28.1245C114.523 27.8004 114.107 27.4954 113.75 27.3429C113.244 27.1142 113.076 27.0856 112.044 27.0856C111.023 27.0856 110.845 27.1142 110.349 27.3334C109.337 27.7909 108.772 28.5439 108.693 29.5256C108.574 31.0316 109.397 31.7845 112.104 32.6519C115.773 33.8338 117.062 34.8059 117.548 36.7789C117.964 38.466 117.508 40.0482 116.259 41.3253C115.525 42.0688 114.672 42.5739 113.581 42.9266C112.887 43.1458 112.629 43.1839 111.499 43.1839C109.605 43.1839 108.217 42.755 106.868 41.7447C106.254 41.2777 105.599 40.5533 105.599 40.3341C105.599 40.2197 107.245 38.9997 107.543 38.8853C107.622 38.8567 107.781 38.9521 107.9 39.095C108.633 39.9433 108.951 40.2197 109.506 40.4771C111.053 41.211 112.927 41.0489 114.067 40.0767C114.771 39.4953 114.97 39.0569 114.97 38.1419C114.97 37.4842 114.93 37.3127 114.702 36.941C114.345 36.35 113.591 35.8734 112.332 35.4255C111.261 35.0442 111.043 34.8536 111.4 34.5677C111.539 34.4628 111.668 34.4723 112.273 34.663C113.859 35.1491 114.94 35.8544 115.386 36.7027C115.733 37.3413 115.812 38.5136 115.574 39.1999C115.059 40.6772 113.512 41.6113 111.598 41.6208C110.081 41.6208 108.961 41.211 108.029 40.315L107.473 39.7813L106.977 40.1053L106.482 40.4294L107.057 40.9536C108.177 41.9735 109.625 42.4882 111.4 42.4882C112.59 42.4977 113.403 42.3166 114.375 41.8305C116.189 40.925 117.171 39.1903 116.903 37.3413C116.616 35.3492 115.525 34.4723 111.896 33.3381C109 32.4231 107.969 31.4986 107.959 29.783C107.959 28.2389 108.782 27.1523 110.408 26.5614C110.894 26.3898 111.202 26.3422 112.044 26.3422C113.492 26.3422 114.276 26.6281 115.218 27.4764L115.565 27.7909L116.041 27.4383L116.517 27.0856L116.09 26.7234C114.057 25.0078 110.141 25.0173 108.157 26.7329C106.422 28.2484 106.234 31.0887 107.771 32.6423C108.227 33.1094 108.227 33.1284 108.048 33.3667C107.86 33.6145 107.572 33.5002 107.096 32.9855C106.382 32.2039 105.996 31.1269 105.996 29.945C106.006 27.9434 107.067 26.285 108.901 25.4176C110.051 24.8743 110.736 24.7504 112.342 24.7886C113.482 24.8172 113.8 24.8553 114.464 25.0745ZM87.7506 25.694C88.6926 26.3517 88.6728 27.5431 87.7208 28.2198C87.5126 28.3628 87.2945 28.42 86.9077 28.42C85.4204 28.42 84.7957 26.6281 85.9856 25.7703C86.164 25.6368 86.402 25.5129 86.5111 25.4843C86.8383 25.3986 87.4829 25.5034 87.7506 25.694ZM122.476 25.5129C122.922 25.6368 123.517 26.2468 123.596 26.6948C123.795 27.7051 122.684 28.6773 121.673 28.3819C120.909 28.1722 120.384 27.3906 120.523 26.6948C120.602 26.2754 121.187 25.6368 121.603 25.5225C122.02 25.4081 122.059 25.4081 122.476 25.5129ZM130.23 27.8576C130.359 27.9815 130.389 28.2675 130.389 29.4494V30.8981L132.074 30.9172C133.007 30.9267 133.909 30.9267 134.087 30.9267C135.912 30.9172 136.894 30.9648 137.003 31.0697C137.122 31.1841 137.449 32.0037 139.373 36.9028C139.888 38.2086 140.334 39.3524 140.364 39.4286C140.394 39.5049 140.751 38.6947 141.167 37.6177C141.574 36.5406 141.961 35.6066 142.02 35.5399C142.179 35.3588 142.536 35.4445 142.565 35.6733C142.585 35.7877 142.417 36.3214 142.209 36.8647C142 37.408 141.584 38.4755 141.296 39.238C140.999 40.0005 140.721 40.6772 140.672 40.7439C140.612 40.8107 140.483 40.8583 140.374 40.8392C140.146 40.8011 140.295 41.1538 137.439 33.9005L136.556 31.6606L135.902 31.632L135.248 31.6034L135.416 32.0133C135.505 32.242 136.527 34.682 137.697 37.4461C138.857 40.2102 139.809 42.5263 139.809 42.593C139.809 42.7646 138.807 45.2713 138.54 45.7765C138.272 46.2816 137.637 46.8249 137.161 46.9583C136.953 47.0251 136.477 47.0536 136.12 47.0346L135.466 47.006L135.426 47.3587C135.386 47.7971 135.416 47.8162 136.517 47.8162C137.538 47.8162 138.153 47.5874 138.738 46.9965C139.323 46.396 139.69 45.6335 141.842 40.4008C143.864 35.4922 143.904 35.4159 144.152 35.4445C144.311 35.4636 144.43 35.5399 144.449 35.6447C144.499 35.8639 140.493 45.5858 140.027 46.3865C139.075 48.0449 137.925 48.6549 136.001 48.5501C134.563 48.4738 134.524 48.4357 134.712 47.149C134.782 46.6533 134.841 46.234 134.841 46.234C134.901 46.1291 135.218 46.1386 135.486 46.2435C135.932 46.4246 136.765 46.4246 137.112 46.253C137.697 45.9576 137.945 45.5477 138.649 43.7463L139.105 42.593L137.965 39.8861C134.93 32.7091 134.722 32.2325 134.276 31.7178C134.087 31.4891 134.077 31.4891 133.988 31.6702C133.929 31.7655 133.849 32.0609 133.81 32.3278C133.77 32.5852 133.691 32.8616 133.641 32.9187C133.562 33.0141 133.106 33.0427 131.965 33.0427H130.389V36.5406C130.389 39.686 130.409 40.0863 130.567 40.3817C130.657 40.5628 130.845 40.7725 130.984 40.8392C131.331 41.0108 132.322 40.9346 132.898 40.6867C133.641 40.3722 133.711 40.4389 133.8 41.678C133.83 42.1355 133.81 42.4214 133.721 42.5263C133.532 42.7836 132.332 43.0505 131.37 43.0505C129.843 43.0505 128.901 42.5549 128.336 41.4493L128.059 40.906L128.029 36.9695L127.999 33.0427H126.888C126.145 33.0427 125.728 33.0045 125.649 32.9283C125.57 32.852 125.53 32.4898 125.53 31.9275C125.53 30.8409 125.52 30.8505 126.958 30.8505H128.009V29.3731C128.009 28.0769 128.029 27.8958 128.187 27.81C128.277 27.7528 128.743 27.7051 129.219 27.7051C129.873 27.7051 130.111 27.7433 130.23 27.8576ZM98.8762 30.698C100.314 30.9458 101.335 31.5939 101.91 32.6423C102.495 33.7003 102.525 34.0148 102.505 38.5899L102.476 42.7169L101.444 42.7455C100.8 42.7646 100.373 42.736 100.284 42.6693C100.185 42.5835 100.145 41.7828 100.126 38.6375C100.096 34.7964 100.086 34.7011 99.8678 34.1673C99.5802 33.4906 99.1241 33.0998 98.3903 32.8902C96.8434 32.4612 95.1676 33.2619 94.6024 34.7202C94.2554 35.5875 94.1959 36.3214 94.1959 39.543C94.1959 43.1649 94.305 42.8599 93.006 42.8599C91.7467 42.8599 91.8161 42.9647 91.8161 40.925C91.8161 39.1808 91.8557 38.9521 92.1731 38.9521C92.2425 38.9521 92.3714 39.0188 92.4507 39.1046C92.5796 39.2285 92.6094 39.5049 92.6094 40.6772V42.0974H93.0556H93.5018V38.9711C93.4919 35.597 93.5315 35.1967 94.0075 34.2245C94.4041 33.4144 94.9792 32.8139 95.713 32.4708C97.5276 31.613 99.5703 32.0895 100.364 33.5669C100.83 34.4247 100.859 34.7202 100.909 38.4946L100.959 42.0974H101.405H101.841L101.811 38.161C101.772 34.4056 101.762 34.2055 101.553 33.5955C101.157 32.4517 100.185 31.6606 98.9059 31.4319C96.9822 31.0887 95.4056 31.6797 94.1761 33.2047C94.0769 33.3286 93.948 33.4239 93.8786 33.4239C93.5514 33.4144 93.4621 33.2428 93.4225 32.4327L93.3729 31.613H92.9465H92.5102L92.5796 34.2531C92.6391 36.8456 92.6292 36.9028 92.4309 37.0744C92.2722 37.2078 92.183 37.2269 92.0342 37.1506C91.8557 37.0649 91.8458 36.8838 91.7863 34.072C91.7268 31.3556 91.7368 31.0792 91.8855 30.9648C91.9946 30.8981 92.3813 30.8505 92.9267 30.8505C93.9777 30.8505 94.1959 30.9839 94.1959 31.6225V32.0133L94.5727 31.7369C95.3461 31.1555 96.1394 30.8123 97.0219 30.6694C97.7458 30.555 98.0234 30.555 98.8762 30.698ZM87.9886 31.003C88.1274 31.1364 88.1472 31.7941 88.1472 36.7885C88.1472 41.7447 88.1274 42.4596 87.9886 42.6502C87.8497 42.8408 87.7605 42.8599 86.9474 42.8599C85.5889 42.8599 85.6682 43.0505 85.6682 39.7717C85.6682 37.2364 85.6782 37.0553 85.8567 36.8456C86.0153 36.655 86.0847 36.636 86.2335 36.7217C86.402 36.817 86.4119 37.0363 86.4417 39.4667L86.4615 42.0974H86.9077H87.3539V36.8552V31.613H86.9077H86.4615V33.2142C86.4615 34.8631 86.4219 35.0442 86.0451 35.0442C85.7277 35.0442 85.6682 34.7106 85.6682 32.9759C85.6682 30.7933 85.6385 30.8505 86.9077 30.8505C87.6217 30.8505 87.8696 30.8886 87.9886 31.003ZM123.061 30.9458C123.239 31.0411 123.249 31.165 123.249 33.0808C123.249 35.2349 123.22 35.3969 122.783 35.3111C122.625 35.2825 122.605 35.1205 122.575 33.443L122.555 31.613H122.059H121.564V36.8552V42.0974H122.059H122.555V41.2396C122.555 40.5247 122.585 40.3722 122.734 40.296C122.843 40.2388 122.972 40.2388 123.081 40.296C123.22 40.3817 123.249 40.5438 123.249 41.4302C123.249 41.9925 123.22 42.5263 123.19 42.6121C123.101 42.8408 121.018 42.8408 120.929 42.6121C120.899 42.5263 120.87 39.8957 120.87 36.7503V31.0316L121.098 30.9458C121.405 30.8314 122.823 30.8314 123.061 30.9458ZM146.294 31.1173C146.363 31.327 145.709 32.9473 145.491 33.1094C145.382 33.1952 145.282 33.1952 145.144 33.1284C144.916 33.0141 144.935 32.8616 145.243 32.1086L145.461 31.613H144.836H144.212L143.974 32.2516C143.716 32.9759 143.498 33.2714 143.26 33.1856C142.982 33.0808 142.982 32.8806 143.289 32.08C143.755 30.8409 143.597 30.9458 145.015 30.9458C146.105 30.9458 146.244 30.9648 146.294 31.1173Z" fill="#191D40"/>
<path d="M31.7755 9.97681C26.3714 10.5106 21.6316 12.4835 17.4669 15.9339C13.104 19.5367 10.0796 24.8743 9.16736 30.5645C8.91946 32.1085 8.85996 35.1967 9.05828 36.8075C9.61357 41.3444 11.2794 45.2999 14.2046 49.0075C15.0574 50.075 17.11 52.0766 18.2899 52.9821C21.9886 55.832 26.1929 57.5476 30.9624 58.1671C32.2614 58.3292 35.2957 58.3482 36.7434 58.2053C39.3116 57.9384 42.1971 57.1759 44.4678 56.1846C52.3113 52.7343 57.6857 45.9003 59.0144 37.6653C59.2722 36.064 59.3218 32.6042 59.1136 31.184C58.2509 25.3889 55.7422 20.5947 51.5478 16.6964C47.75 13.1698 42.9309 10.9014 37.7151 10.177C36.1088 9.94822 33.0844 9.85291 31.7755 9.97681ZM40.8188 12.2262C41.4633 12.4073 42.4351 12.7314 42.9804 12.9411C44.2893 13.4462 46.1436 14.3898 46.1833 14.5709C46.2229 14.7806 43.8233 18.7456 43.6547 18.7456C43.5754 18.7456 42.9804 18.4883 42.326 18.1833C41.2948 17.6972 39.6388 17.1158 38.2109 16.7536C37.9829 16.6964 37.7746 16.5915 37.7449 16.5153C37.7151 16.439 37.7548 16.1722 37.8341 15.9244C37.9729 15.4573 38.5282 12.9792 38.6373 12.3596C38.7563 11.6639 38.8753 11.6639 40.8188 12.2262ZM30.2584 14.3612C30.6451 14.7329 30.655 14.7615 30.6154 15.2381C30.5658 15.6575 30.5063 15.7814 30.1989 16.0483C29.9113 16.3056 29.7626 16.3628 29.3957 16.3628C28.1761 16.3628 27.7001 14.7615 28.7314 14.142C28.8801 14.0562 29.1974 13.98 29.4354 13.98C29.8023 13.98 29.9213 14.0276 30.2584 14.3612ZM20.7788 17.6686C21.4134 18.4502 22.0877 19.2413 22.2761 19.4414C22.4546 19.632 22.6034 19.8703 22.6034 19.9656C22.6034 20.0514 22.3555 20.3183 22.0481 20.5566C21.2548 21.1666 19.9756 22.4819 19.1328 23.5494C18.6668 24.1594 18.3594 24.4644 18.2503 24.4453C18.0123 24.3977 14.274 21.9958 14.2046 21.8338C14.1253 21.6336 15.1466 20.2897 16.5547 18.7552C17.3678 17.8687 19.232 16.2675 19.4402 16.2675C19.5393 16.2675 20.1244 16.887 20.7788 17.6686ZM36.8326 17.3064C40.6701 17.8592 43.9125 19.5177 46.7584 22.3961C48.9101 24.5693 50.4273 27.2857 51.1015 30.2023C51.9642 33.8909 51.518 37.6176 49.8125 41.0489C47.7599 45.1664 44.0414 48.3308 39.5595 49.7605C37.5366 50.4086 36.7037 50.523 34.2049 50.5326C32.2416 50.5326 31.835 50.504 30.8335 50.3038C26.3615 49.4174 22.5141 47.0346 19.8963 43.527C19.0931 42.4309 17.9627 40.2864 17.5463 39.0378C15.8804 34.0815 16.6538 28.8774 19.698 24.4644C20.759 22.9394 22.7025 21.0617 24.289 20.0609C26.7383 18.4978 28.9991 17.6591 31.8251 17.2683C33.1538 17.0776 35.3452 17.0967 36.8326 17.3064ZM49.8621 20.1563C50.4471 20.5756 50.4967 21.462 49.9711 21.9767C48.9101 22.9871 47.2244 21.6908 48.0375 20.4899C48.4441 19.8989 49.2869 19.7369 49.8621 20.1563ZM55.7124 24.6455C56.0297 25.2555 56.5949 26.7043 56.9122 27.7146C57.3783 29.2301 57.7848 31.6129 57.5667 31.6129C57.5072 31.6129 53.4813 32.099 53.1343 32.1466C52.8467 32.1848 52.6484 32.1657 52.6088 32.1085C52.5691 32.0513 52.46 31.5366 52.3509 30.9743C52.0931 29.6113 51.7262 28.4294 51.2503 27.3524C51.042 26.8663 50.8636 26.3993 50.8636 26.323C50.8636 26.2372 51.1412 26.0561 51.5676 25.875C51.9642 25.7035 52.9558 25.265 53.7788 24.8933C54.6018 24.5121 55.3356 24.2261 55.405 24.2547C55.4744 24.2738 55.6133 24.4549 55.7124 24.6455ZM14.9781 29.8877C15.3152 30.2023 15.3648 30.3166 15.3648 30.6788C15.3648 31.6415 14.2839 32.2134 13.4708 31.6796C13.0742 31.4223 12.8858 31.1077 12.8858 30.6788C12.8858 29.983 13.3816 29.5255 14.165 29.516C14.5318 29.516 14.6508 29.5637 14.9781 29.8877ZM15.6028 36.2546C15.6325 36.35 15.7515 36.9123 15.8606 37.5032C16.0886 38.7042 16.4952 40.01 17.0108 41.1728C17.2884 41.7923 17.3281 41.9639 17.229 42.0497C17.1595 42.1164 16.5844 42.3928 15.9597 42.6692C15.335 42.9456 14.4228 43.3555 13.9369 43.5842C13.451 43.813 12.975 44.0036 12.866 44.0036C12.6677 44.0036 12.3603 43.4222 11.8248 42.0973C11.2299 40.5914 10.3771 36.9409 10.5754 36.7503C10.6547 36.674 14.6211 36.1307 15.2854 36.1021C15.454 36.0926 15.573 36.1498 15.6028 36.2546ZM54.4333 37.5795C54.8002 37.7892 55.0282 38.1895 55.0282 38.6184C55.0282 39.3428 54.5225 39.8098 53.7292 39.8098C53.3822 39.8098 53.2533 39.7526 52.936 39.4381C52.5988 39.114 52.5493 39.0187 52.5493 38.6184C52.5493 38.2181 52.5988 38.1228 52.936 37.7987C53.2632 37.4842 53.3822 37.427 53.7392 37.427C53.9672 37.427 54.2746 37.4937 54.4333 37.5795ZM51.9047 44.9949C53.9871 46.3102 54.0366 46.3483 54.0366 46.5103C54.0366 46.6724 52.5096 48.6168 51.6866 49.5032C50.8239 50.4277 48.9795 52.0099 48.7614 52.0099C48.5432 52.0099 45.5883 48.4929 45.628 48.2927C45.6478 48.2069 46.0345 47.8257 46.5006 47.4253C47.4525 46.6152 48.573 45.4047 49.2473 44.4516C49.5051 44.0989 49.7827 43.813 49.8621 43.813C49.9513 43.813 50.8735 44.3467 51.9047 44.9949ZM20.3326 46.8439C20.878 47.4253 20.7689 48.2832 20.1046 48.6739C19.2419 49.1791 18.2205 48.6358 18.2205 47.6732C18.2205 46.9011 18.7461 46.4532 19.5691 46.5199C19.9657 46.5485 20.1145 46.6057 20.3326 46.8439ZM25.7467 50.0941C27.0159 50.7041 28.2058 51.133 29.475 51.4476C29.9213 51.5524 30.3278 51.6763 30.3675 51.7144C30.4071 51.7621 30.2187 52.801 29.951 54.0401C29.6734 55.2791 29.4453 56.3181 29.4453 56.3371C29.4453 56.5563 28.1661 56.3085 26.5201 55.7652C24.6361 55.1552 22.0084 53.9257 22.0084 53.6588C22.0084 53.4777 24.3882 49.5318 24.4973 49.5318C24.5369 49.5318 25.1021 49.7891 25.7467 50.0941ZM39.6685 52.0576C40.2635 52.353 40.5114 53.0679 40.204 53.6302C39.6884 54.5834 38.2407 54.4976 37.8936 53.4873C37.5366 52.4579 38.6571 51.5619 39.6685 52.0576Z" fill="#191D40"/>
<path d="M38.6175 13.8563C38.4093 14.7903 38.2209 15.7244 38.1912 15.9436L38.1515 16.3344L38.8753 16.506C39.976 16.7538 41.3642 17.2589 42.5541 17.8404L43.625 18.355L43.8035 18.0977C43.9424 17.9071 45.3207 15.6482 45.8759 14.7236C45.9156 14.6474 45.1719 14.2661 43.6746 13.5894C42.3955 13.0175 39.6884 12.1692 39.1332 12.1692C39.034 12.1692 38.8853 12.6553 38.6175 13.8563Z" fill="#191D40"/>
<path d="M28.9793 14.3137C28.3645 14.571 28.2455 15.324 28.7512 15.81C29.0289 16.0674 29.1082 16.096 29.4751 16.0483C30.4964 15.9149 30.6749 14.5901 29.723 14.2756C29.3462 14.1516 29.366 14.1516 28.9793 14.3137Z" fill="#191D40"/>
<path d="M17.7049 18.0976C15.9201 19.8133 14.3831 21.6623 14.6013 21.8529C14.869 22.1008 18.1512 24.0928 18.2305 24.0642C18.2801 24.0451 18.5974 23.6734 18.9444 23.2255C19.2816 22.7775 20.1641 21.8434 20.8879 21.1476C21.7804 20.2898 22.1869 19.8418 22.1274 19.7656C21.4829 18.9268 19.47 16.5536 19.4105 16.5536C19.3609 16.5536 18.5974 17.2493 17.7049 18.0976Z" fill="#191D40"/>
<path d="M31.5276 17.7546C25.5781 18.6505 20.5507 22.5012 18.3494 27.8673C14.7896 36.5122 19.5294 46.339 28.6718 49.2842C30.7046 49.9418 31.4978 50.0467 34.0561 50.0467C36.0591 50.0467 36.4657 50.0276 37.3779 49.837C40.8882 49.1031 43.5754 47.702 46.0643 45.3001C49.0093 42.4598 50.6553 39.0285 50.9627 35.0635C51.3296 30.5075 49.6538 25.9992 46.3816 22.7014C43.8828 20.1756 41.0468 18.6601 37.487 17.9166C35.9996 17.6116 33.0051 17.5258 31.5276 17.7546ZM34.2148 18.174C34.3734 18.2598 34.4032 18.3837 34.4032 19.0127C34.4032 19.4607 34.3536 19.8038 34.2842 19.8706C34.2148 19.9373 33.838 19.9849 33.3124 19.9849C32.8464 19.9945 32.1523 20.0421 31.7656 20.1088C31.3788 20.1756 31.012 20.2137 30.9525 20.1946C30.8236 20.1565 30.4963 18.803 30.5657 18.6124C30.6252 18.4694 31.6168 18.2884 32.9654 18.1835C33.4612 18.1359 33.8975 18.0977 33.9371 18.0882C33.9867 18.0882 34.1057 18.1263 34.2148 18.174ZM38.4191 18.6982C39.5594 19.0032 40.2833 19.2701 40.3329 19.4035C40.3924 19.5655 39.8371 20.8523 39.6883 20.9095C39.6189 20.9381 39.1529 20.8237 38.6472 20.6616C38.1415 20.5091 37.5564 20.3471 37.3482 20.309C36.7433 20.2041 36.6838 20.0993 36.8425 19.3463C36.9218 18.9937 37.0011 18.641 37.0309 18.5743C37.0904 18.4027 37.4176 18.4313 38.4191 18.6982ZM28.2653 20.1279C28.4239 20.4901 28.533 20.8523 28.5032 20.9095C28.4834 20.9762 28.2256 21.1287 27.938 21.2526C27.6505 21.3765 27.1051 21.6529 26.7283 21.8721C26.3614 22.0913 25.9846 22.2724 25.8855 22.2724C25.7962 22.2724 25.5285 21.9865 25.2905 21.6338L24.8542 20.9952L25.1913 20.7284C25.6475 20.3566 27.5612 19.413 27.7893 19.4416C27.9083 19.4512 28.0669 19.6799 28.2653 20.1279ZM43.7935 21.2049C44.8347 21.9579 45.7073 22.7299 45.7073 22.9206C45.7073 23.1112 44.7256 24.0834 44.5372 24.0834C44.4579 24.0834 44.1307 23.8451 43.8133 23.5592C43.4861 23.2732 42.9408 22.8443 42.5838 22.606C42.2268 22.3582 41.9393 22.0913 41.9393 22.0056C41.9492 21.7673 42.7127 20.6521 42.8713 20.6521C42.9507 20.6521 43.3671 20.8999 43.7935 21.2049ZM35.5237 20.8904C36.5054 20.9571 38.2704 21.3956 39.3512 21.834C43.506 23.521 46.56 27.162 47.4624 31.5083C47.7004 32.6425 47.6905 35.073 47.4624 36.2168C47.0856 38.0086 46.332 39.7624 45.2809 41.2302C44.5967 42.1929 43.0201 43.7465 42.0483 44.4137C38.0027 47.2254 32.8861 47.6734 28.295 45.6242C26.4903 44.8235 24.5369 43.2795 23.2379 41.6305C22.4447 40.6202 21.4035 38.6282 21.0763 37.4749C20.6598 36.0261 20.5805 35.4352 20.5805 33.853C20.5805 31.5655 20.9374 30.1262 22.0084 28.0389C24.1006 23.9785 28.2752 21.2621 33.0645 20.8618C33.8975 20.7951 34.2644 20.7951 35.5237 20.8904ZM23.347 23.197C23.6445 23.502 23.8924 23.7879 23.8924 23.8356C23.8924 23.8832 23.585 24.2645 23.2181 24.6934C22.8413 25.1128 22.3852 25.6656 22.2067 25.9134C22.0282 26.1707 21.8398 26.3709 21.7902 26.3709C21.7406 26.3709 21.4134 26.1993 21.0663 25.9801C20.6598 25.7323 20.4218 25.5322 20.4218 25.4178C20.4218 25.1032 22.4546 22.6537 22.7124 22.6537C22.762 22.6537 23.0495 22.9015 23.347 23.197ZM48.0573 25.6751C48.7415 26.7617 49.2076 27.7339 49.1183 27.8769C48.9993 28.0484 47.7103 28.5631 47.5417 28.5059C47.4624 28.4773 47.3533 28.3153 47.2938 28.1437C47.2343 27.9722 46.9468 27.4289 46.6493 26.9428C46.3518 26.4567 46.1039 26.0182 46.1039 25.9515C46.1138 25.8181 47.2938 25.0365 47.4921 25.0365C47.5814 25.0365 47.8293 25.3225 48.0573 25.6751ZM19.9459 28.1533C20.3524 28.2962 20.6201 28.4583 20.6201 28.544C20.6201 28.6203 20.4912 29.0969 20.3227 29.602C20.164 30.1072 19.9855 30.6981 19.926 30.9173C19.8665 31.1461 19.7674 31.3272 19.698 31.3272C19.3509 31.3272 18.2007 31.0317 18.1313 30.9269C18.042 30.7934 18.0718 30.6409 18.3593 29.6592C18.7163 28.4487 18.9543 27.8959 19.1228 27.8959C19.2022 27.8959 19.579 28.0103 19.9459 28.1533ZM50.0603 30.5456C50.2091 30.8125 50.3876 32.1945 50.4074 33.1572L50.4173 34.0436H49.5249H48.6325L48.563 33.1858C48.5333 32.7092 48.4441 31.9944 48.3746 31.5845C48.3152 31.1747 48.2854 30.822 48.3152 30.7839C48.3647 30.7458 49.6042 30.4217 49.8918 30.3836C49.9314 30.3741 50.0108 30.4503 50.0603 30.5456ZM19.6385 34.625C19.6781 35.1588 19.7575 35.8832 19.8269 36.2263C19.8963 36.5789 19.926 36.8935 19.8963 36.9221C19.8566 36.9507 19.4897 37.0555 19.0633 37.1508C18.3692 37.3129 18.28 37.3129 18.1808 37.1889C17.9726 36.9221 17.6454 34.1008 17.7743 33.7577C17.8338 33.6338 17.9825 33.6147 18.7064 33.6338L19.579 33.6624L19.6385 34.625ZM49.3067 36.5122C49.6736 36.5789 50.0306 36.6838 50.0802 36.7314C50.2686 36.9125 49.4456 39.648 49.158 39.8196C49.0985 39.8577 48.8209 39.8005 48.5432 39.6957C48.2656 39.5908 47.9384 39.4669 47.8194 39.4288C47.4921 39.2954 47.4822 39.2096 47.74 38.4661C47.8789 38.0754 48.0573 37.5035 48.1466 37.1889C48.3449 36.4074 48.3647 36.3788 48.5036 36.3788C48.573 36.3883 48.9399 36.4455 49.3067 36.5122ZM21.0763 39.9244C21.2746 40.3057 21.5919 40.868 21.7803 41.1635C21.9687 41.4685 22.0877 41.7544 22.0579 41.8116C21.9588 41.9737 20.8383 42.6695 20.6895 42.6695C20.4912 42.6695 19.0336 40.239 19.0336 39.9054C19.0336 39.7719 20.1938 39.2572 20.4912 39.2477C20.6697 39.2382 20.7887 39.3716 21.0763 39.9244ZM47.1352 41.7354C47.5615 41.9927 47.7896 42.1929 47.7896 42.3073C47.7896 42.6599 45.7569 45.0523 45.4594 45.0523C45.3503 45.0523 44.2199 43.9848 44.2199 43.8704C44.2199 43.8418 44.4876 43.5273 44.8248 43.1746C45.1619 42.822 45.628 42.2596 45.8758 41.9355C46.1237 41.6019 46.3617 41.3351 46.4014 41.3351C46.451 41.3351 46.7782 41.5162 47.1352 41.7354ZM24.6162 44.366C25.1219 44.7663 25.6971 45.2048 25.9053 45.3287C26.1036 45.4431 26.2722 45.6146 26.2722 45.7004C26.2722 45.9196 25.4789 47.0539 25.3302 47.0539C24.9732 47.0539 22.5041 45.0523 22.5041 44.7663C22.5041 44.6234 23.4957 43.6226 23.6445 43.6226C23.6742 43.6226 24.1105 43.9562 24.6162 44.366ZM42.8713 46.0435C43.1192 46.3867 43.3076 46.7203 43.2779 46.787C43.1688 47.0539 40.8386 48.2929 40.4519 48.2929C40.2932 48.2929 40.1742 48.1404 39.9462 47.6543C39.7875 47.3017 39.6685 46.949 39.6784 46.8728C39.6983 46.787 40.204 46.4724 40.7989 46.1674C41.4038 45.8624 41.9293 45.5765 41.9888 45.5193C42.1971 45.3192 42.435 45.4621 42.8713 46.0435ZM29.4552 47.0348C29.9113 47.1873 30.5261 47.3684 30.8136 47.4256C31.0913 47.4923 31.359 47.5971 31.3888 47.6448C31.5078 47.8164 31.2103 49.1603 31.0417 49.227C30.6947 49.3509 27.8587 48.4836 27.8587 48.2453C27.8587 48.1786 27.9678 47.8926 28.0868 47.6162C28.2157 47.3303 28.3545 47.0253 28.3843 46.93C28.4636 46.7203 28.4636 46.7203 29.4552 47.0348ZM37.487 48.0832C37.5465 48.3882 37.606 48.7504 37.6159 48.9125C37.6258 49.1698 37.5862 49.2079 37.1598 49.3128C36.8921 49.37 36.0988 49.4748 35.3948 49.532C33.7686 49.675 33.7884 49.6845 33.8281 48.6361L33.8578 47.864L34.6511 47.7878C35.0874 47.7401 35.8212 47.6543 36.2872 47.5876C36.7533 47.5209 37.1796 47.4923 37.249 47.5114C37.3185 47.5304 37.4176 47.7878 37.487 48.0832Z" fill="#191D40"/>
<path d="M31.7062 18.5934C31.2897 18.6506 30.9129 18.7364 30.8732 18.7745C30.8038 18.8412 30.9724 19.861 31.0716 19.9563C31.0914 19.9754 31.369 19.9563 31.6764 19.8991C31.9937 19.8419 32.668 19.7657 33.1737 19.7371L34.1058 19.6704V19.0699V18.46L33.2927 18.4695C32.8366 18.479 32.1226 18.5267 31.7062 18.5934Z" fill="#191D40"/>
<path d="M37.0904 19.3271C37.021 19.6511 36.9814 19.918 37.0012 19.937C37.021 19.9466 37.4077 20.0514 37.8639 20.1658C38.32 20.2802 38.8455 20.4326 39.0439 20.5089C39.2323 20.5851 39.4405 20.6519 39.5099 20.6519C39.5992 20.6519 40.0553 19.7464 40.0553 19.5558C40.0553 19.47 37.616 18.7457 37.3284 18.7457C37.2689 18.7457 37.1599 19.003 37.0904 19.3271Z" fill="#191D40"/>
<path d="M26.659 20.1848C26.1335 20.4517 25.5881 20.7567 25.4394 20.8711L25.1716 21.0808L25.5286 21.5859L25.8856 22.0911L26.302 21.8433C26.5301 21.7003 27.0755 21.4143 27.5217 21.2047L28.3249 20.8139L28.077 20.2515C27.9382 19.9465 27.7795 19.6987 27.72 19.6987C27.6605 19.6987 27.1846 19.9179 26.659 20.1848Z" fill="#191D40"/>
<path d="M42.5739 21.3478C42.4251 21.567 42.2566 21.7958 42.2169 21.853C42.1673 21.9197 42.3855 22.1389 42.8118 22.4439C43.1887 22.7108 43.7241 23.1302 44.0117 23.378L44.5372 23.826L44.9933 23.378L45.4594 22.93L44.9636 22.5011C44.5075 22.1103 43.2283 21.1476 42.9705 21.0047C42.9011 20.9665 42.7325 21.1095 42.5739 21.3478Z" fill="#191D40"/>
<path d="M31.5276 21.5195C28.067 22.2344 25.1319 24.1121 23.2578 26.819C21.6316 29.1732 20.9375 31.537 21.0565 34.3297C21.1854 37.6371 22.4348 40.3916 24.8344 42.7173C26.7085 44.5378 28.9297 45.6911 31.5475 46.1963C32.7969 46.4441 35.0081 46.4631 36.3071 46.2439C39.0637 45.7864 41.5129 44.5187 43.506 42.5362C45.2908 40.7443 46.3618 38.8094 46.917 36.3503C47.2244 34.9778 47.2145 32.7475 46.9071 31.3559C46.3717 28.9254 45.271 26.9238 43.4862 25.151C41.7013 23.3781 39.6685 22.2534 37.1598 21.6434C36.2972 21.4337 35.8609 21.3956 34.3041 21.3575C32.7274 21.3289 32.3407 21.348 31.5276 21.5195ZM28.1364 31.0128C28.1562 31.1367 28.2653 31.232 28.4339 31.2797C28.7611 31.3559 29.4453 31.7753 29.4453 31.8992C29.4453 31.9468 29.3362 32.0612 29.1974 32.147C28.9693 32.29 28.9396 32.29 28.6917 32.0993C28.2157 31.7372 28.1562 31.8134 28.1562 32.7284L28.1661 33.5672L28.6619 33.7959C29.2767 34.0723 29.5445 34.4536 29.5445 35.0445C29.5445 35.6546 29.2569 36.0644 28.652 36.3122C28.3248 36.4457 28.1562 36.5696 28.1364 36.703C28.1166 36.8269 28.0174 36.9127 27.8885 36.9318C27.71 36.9604 27.6604 36.9222 27.6604 36.7411C27.6604 36.5505 27.5811 36.4933 27.2241 36.398C26.7482 36.2836 26.1731 35.8738 26.1731 35.6546C26.1731 35.5783 26.2821 35.4735 26.411 35.4067C26.6193 35.321 26.6986 35.34 26.9663 35.5592C27.5315 36.0072 27.6109 35.931 27.5811 34.9588L27.5514 34.1009L27.0952 33.8912C26.5399 33.6339 26.2722 33.2336 26.2722 32.6617C26.2722 31.9564 26.6391 31.5465 27.4919 31.2892C27.591 31.2606 27.6604 31.1462 27.6604 30.9937C27.6604 30.784 27.7001 30.7459 27.8885 30.7745C28.0273 30.7936 28.1166 30.8793 28.1364 31.0128ZM33.5802 31.2797C34.0363 31.3464 34.7999 31.8229 34.7999 32.0326C34.7999 32.1089 34.6809 32.2614 34.542 32.3662L34.2842 32.5569L33.9074 32.2709C32.7374 31.3654 31.0318 32.2995 31.0318 33.8531C31.0318 34.6538 31.5574 35.4544 32.2515 35.7022C32.8861 35.931 33.8678 35.7308 34.1355 35.3114C34.2842 35.0922 34.5222 35.0922 34.8098 35.321L35.0478 35.5116L34.7106 35.8452C33.7686 36.7793 32.0135 36.7411 31.012 35.7594C30.4964 35.2542 30.2981 34.8158 30.2584 34.0152C30.2088 33.1764 30.3972 32.6236 30.9128 32.0708C31.4285 31.5179 32.4795 31.0795 33.015 31.1843C33.0943 31.2034 33.3521 31.2415 33.5802 31.2797ZM36.436 33.8531V36.3313L36.079 36.3599C35.8014 36.3789 35.7121 36.3503 35.6725 36.2169C35.6427 36.1216 35.6427 35.1017 35.6526 33.9484C35.6725 32.7951 35.6923 31.7276 35.6923 31.5847C35.6923 31.3368 35.7121 31.3178 36.0691 31.3464L36.436 31.375V33.8531ZM39.9462 33.2145L41.2948 35.0541L41.3245 33.1955L41.3443 31.3273H41.741H42.1376V33.8531V36.3789H41.6914H41.2551L39.8867 34.4917L38.5183 32.614L38.4886 34.4917L38.4687 36.3789H38.0721H37.6755V33.9198C37.6755 32.5664 37.7052 31.4226 37.7449 31.3845C37.7845 31.3464 37.9928 31.3273 38.2109 31.3464C38.5976 31.375 38.6175 31.3845 39.9462 33.2145Z" fill="#191D40"/>
<path d="M27.7596 31.184C27.7596 31.3366 27.6901 31.4509 27.591 31.4795C26.7481 31.7369 26.4705 32.0514 26.4705 32.7377C26.4705 33.2428 26.8175 33.6336 27.4422 33.8147C27.6703 33.8815 27.8587 33.9672 27.8587 34.0149C27.8587 34.0625 27.8984 34.0721 27.9579 34.0435C28.0769 33.9672 28.5925 34.2246 28.8503 34.4915C29.3362 34.9966 28.9495 35.9974 28.2653 35.9974C28.0075 35.9974 27.9678 35.9593 27.9281 35.6829L27.8885 35.3779L27.8785 35.6829C27.8587 35.9593 27.8191 35.9974 27.591 35.9974C27.4422 35.9974 27.1547 35.8831 26.9465 35.7401C26.6391 35.5399 26.5399 35.5113 26.4407 35.6066C26.3515 35.702 26.3614 35.7591 26.5201 35.8735C26.7977 36.0737 27.3233 36.2834 27.5612 36.2834C27.71 36.2834 27.7596 36.3501 27.7596 36.5217C27.7596 36.6551 27.8091 36.7599 27.8587 36.7599C27.9182 36.7599 27.9579 36.6646 27.9579 36.5407C27.9579 36.3692 28.057 36.2929 28.4636 36.1595C29.0387 35.9593 29.3461 35.5685 29.3461 35.0443C29.3461 34.5487 29.0585 34.1674 28.4735 33.91C27.9975 33.7004 27.9579 33.6527 27.948 33.3382C27.938 33.0713 27.9182 33.0522 27.8885 33.2333C27.8191 33.5764 27.71 33.6432 27.4522 33.5193C26.6886 33.138 26.53 32.4994 27.0555 31.9847C27.3034 31.7464 27.4224 31.7083 27.8785 31.7083C28.2355 31.7083 28.5032 31.7655 28.6916 31.8894C28.9792 32.0705 29.1478 32.0705 29.1478 31.8894C29.1478 31.7464 28.5231 31.4223 28.2355 31.4223C28.0075 31.4223 27.9579 31.3842 27.9579 31.184C27.9579 31.0506 27.9182 30.9458 27.8587 30.9458C27.8091 30.9458 27.7596 31.0506 27.7596 31.184Z" fill="#191D40"/>
<path d="M27.234 32.0992C27.0357 32.2421 26.9663 32.3851 26.9663 32.6234C26.9663 32.9665 27.244 33.3286 27.5216 33.3286C27.6505 33.3286 27.6604 33.2238 27.6009 32.6329C27.5712 32.2612 27.5216 31.9372 27.5117 31.9181C27.5018 31.9086 27.3729 31.9848 27.234 32.0992Z" fill="#191D40"/>
<path d="M28.1562 35.0443C28.1562 35.6543 28.186 35.8068 28.305 35.8068C28.5529 35.8068 28.8504 35.4446 28.8504 35.1491C28.8504 34.7393 28.7611 34.5773 28.4438 34.4153L28.1562 34.2723V35.0443Z" fill="#191D40"/>
<path d="M32.3705 31.5082C30.784 31.899 30.0304 33.5288 30.7642 34.9776C31.4483 36.3024 33.3026 36.6837 34.4231 35.7305C34.7206 35.4827 34.5024 35.4065 34.195 35.6543C33.2035 36.4549 31.6566 36.0927 31.0021 34.9108C30.7047 34.358 30.7047 33.3382 31.012 32.7854C31.6169 31.6798 33.1142 31.2985 34.0661 32.0229C34.2347 32.1468 34.3537 32.1754 34.4231 32.1087C34.5818 31.9562 33.7389 31.5368 33.1638 31.4796C32.8961 31.451 32.5391 31.4701 32.3705 31.5082Z" fill="#191D40"/>
<path d="M35.9897 33.9006C35.9897 35.3589 36.0294 36.1881 36.0889 36.1881C36.1484 36.1881 36.1881 35.3589 36.1881 33.9006C36.1881 32.4423 36.1484 31.6131 36.0889 31.6131C36.0294 31.6131 35.9897 32.4423 35.9897 33.9006Z" fill="#191D40"/>
<path d="M37.973 33.8911C37.973 35.3303 38.0127 36.1881 38.0722 36.1881C38.1317 36.1881 38.1813 35.3875 38.1912 34.1198C38.211 32.7378 38.2606 32.042 38.33 32.0229C38.3895 32.0039 39.1233 32.9379 39.9562 34.0912C41.0073 35.5495 41.5229 36.1881 41.6518 36.1881C41.8303 36.1881 41.8402 36.0642 41.8402 33.9006C41.8402 32.4709 41.8005 31.6131 41.741 31.6131C41.6816 31.6131 41.632 32.3851 41.6221 33.6147C41.6022 34.8537 41.5526 35.6258 41.4932 35.6353C41.4436 35.6448 40.7296 34.7584 39.9264 33.6528C38.7861 32.1087 38.3994 31.6512 38.211 31.6321L37.973 31.6035V33.8911Z" fill="#191D40"/>
<path d="M22.2563 23.4354C21.6415 24.0931 20.7194 25.2654 20.7194 25.3893C20.7194 25.4942 21.5721 26.0851 21.7209 26.0851C21.7506 26.0851 21.8597 25.9803 21.939 25.8564C22.0283 25.7325 22.4051 25.2559 22.7918 24.7984C23.1785 24.3409 23.4958 23.8929 23.4958 23.8071C23.4958 23.7213 23.3272 23.483 23.1091 23.2829L22.7323 22.9302L22.2563 23.4354Z" fill="#191D40"/>
<path d="M46.8972 25.6272C46.6493 25.7797 46.4312 25.9322 46.4212 25.9417C46.4014 25.9608 46.6295 26.3992 46.927 26.9139C47.2244 27.4286 47.5021 27.9433 47.5417 28.0672C47.6111 28.3054 47.6806 28.3054 48.4441 27.9814L48.8804 27.7908L48.5234 27.1045C48.0673 26.2372 47.5021 25.3222 47.4128 25.3222C47.3732 25.3222 47.1451 25.4652 46.8972 25.6272Z" fill="#191D40"/>
<path d="M19.1427 28.2577C19.0435 28.4293 18.4982 30.1546 18.399 30.5835C18.3494 30.8123 18.3693 30.8504 18.6072 30.9076C18.7659 30.9362 19.0435 31.0029 19.2319 31.0506C19.5889 31.1363 19.7277 31.0506 19.7277 30.7551C19.7277 30.6693 19.8666 30.1736 20.045 29.6589C20.2235 29.1346 20.3624 28.6676 20.3723 28.6295C20.3723 28.5818 20.1145 28.4484 19.7972 28.3244C19.2815 28.1147 19.222 28.1147 19.1427 28.2577Z" fill="#191D40"/>
<path d="M49.4754 30.7358C49.3365 30.7549 49.0688 30.8025 48.8705 30.8597L48.5234 30.9455L48.6424 31.6317C48.7118 32.013 48.7813 32.6707 48.8011 33.09L48.8308 33.8525L49.515 33.8811L50.1893 33.9097L50.1298 33.071C50.0505 32.0416 49.8621 30.8216 49.7828 30.7453C49.753 30.7167 49.6142 30.7167 49.4754 30.7358Z" fill="#191D40"/>
<path d="M18.042 34.3961C18.042 34.9775 18.2998 36.9409 18.3791 37.0171C18.399 37.0457 18.6964 37.0076 19.0336 36.9409L19.6484 36.8265L19.5889 36.4357C19.5591 36.2165 19.4798 35.5398 19.4203 34.9203L19.3013 33.8051H18.6667H18.042V34.3961Z" fill="#191D40"/>
<path d="M48.5333 36.7791C48.5135 36.8458 48.4044 37.2365 48.2855 37.6464C48.1764 38.0562 48.0177 38.5518 47.9384 38.7329C47.7599 39.1332 47.7698 39.1428 48.4639 39.4096L48.9796 39.6098L49.1283 39.2762C49.2969 38.8854 49.6241 37.837 49.753 37.2651L49.8522 36.8648L49.3564 36.7695C48.7317 36.6361 48.5829 36.6361 48.5333 36.7791Z" fill="#191D40"/>
<path d="M19.8567 39.6767C19.3609 39.9054 19.3411 39.9245 19.4402 40.1723C19.589 40.5536 20.3922 41.9452 20.6004 42.2025L20.7888 42.4218L21.3044 42.1072C21.592 41.9261 21.8002 41.7355 21.7804 41.6783C21.7506 41.6116 21.5027 41.1827 21.2251 40.7156C20.9375 40.239 20.6896 39.7625 20.6599 39.6385C20.5905 39.3812 20.5112 39.3812 19.8567 39.6767Z" fill="#191D40"/>
<path d="M45.9651 42.2401C45.6974 42.5833 45.271 43.098 45.0033 43.3744L44.5273 43.8796L45.0033 44.3275L45.4793 44.7755L46.0246 44.175C46.6097 43.5269 47.4922 42.4022 47.4922 42.2973C47.4922 42.2497 46.5502 41.6206 46.4709 41.6206C46.451 41.6206 46.223 41.897 45.9651 42.2401Z" fill="#191D40"/>
<path d="M23.1983 44.3466L22.7521 44.785L23.2974 45.2616C24.0511 45.9382 25.2608 46.7865 25.3699 46.7197C25.4194 46.6912 25.5979 46.4624 25.7665 46.1956L26.064 45.7286L25.4393 45.2997C25.0922 45.0614 24.5667 44.6516 24.2593 44.3847C23.9618 44.1274 23.6941 43.9082 23.6743 43.9082C23.6544 43.9082 23.4363 44.1083 23.1983 44.3466Z" fill="#191D40"/>
<path d="M41.8699 45.8907C41.6518 46.0336 41.1064 46.3196 40.6701 46.5198L39.8768 46.8915L40.1148 47.4253C40.2536 47.7113 40.3825 47.9686 40.4123 47.9972C40.5313 48.1116 42.9309 46.8248 42.9309 46.6341C42.9309 46.5674 42.7822 46.3196 42.6037 46.0718L42.2765 45.6333L41.8699 45.8907Z" fill="#191D40"/>
<path d="M28.3546 47.5877C28.2257 47.8832 28.1662 48.15 28.2158 48.1881C28.4141 48.3502 30.4865 48.9601 30.8435 48.9601C30.9625 48.9601 31.0319 48.8458 31.0715 48.598C31.1112 48.4074 31.1608 48.131 31.1905 47.9975C31.2401 47.7688 31.2004 47.7497 30.6749 47.6354C30.3675 47.5686 29.8023 47.4066 29.4156 47.2827C29.0289 47.1588 28.6818 47.054 28.6421 47.054C28.6124 47.054 28.4736 47.2922 28.3546 47.5877Z" fill="#191D40"/>
<path d="M36.5848 47.8253C36.3964 47.8635 35.7618 47.9302 35.1767 47.9684L34.1058 48.0351V48.6644V49.2936L34.671 49.265C35.5833 49.2269 37.1401 49.0457 37.2789 48.9599C37.388 48.8932 37.388 48.7788 37.2789 48.3021C37.2095 47.9779 37.1004 47.7205 37.0409 47.73C36.9814 47.7395 36.7732 47.7777 36.5848 47.8253Z" fill="#191D40"/>
<path d="M48.4937 20.4229C47.9384 20.871 48.1367 21.7672 48.8209 21.9865C49.2274 22.1104 49.5646 22.0055 49.862 21.6432C50.3479 21.0426 49.862 20.175 49.039 20.175C48.9101 20.175 48.6622 20.2894 48.4937 20.4229Z" fill="#191D40"/>
<path d="M53.2433 25.4459C51.984 26.0273 51.3197 26.3895 51.3296 26.4753C51.3395 26.5515 51.5081 26.9709 51.6965 27.4189C52.1526 28.4959 52.5195 29.735 52.7178 30.8692L52.8765 31.8033H53.2334C53.7193 31.8033 57.1998 31.3648 57.2692 31.2981C57.3485 31.2219 57.051 29.573 56.7635 28.4578C56.3768 27.009 55.4248 24.5595 55.2364 24.5595C55.1968 24.5595 54.3043 24.9598 53.2433 25.4459Z" fill="#191D40"/>
<path d="M13.7088 29.8496C13.322 30.0117 13.1832 30.25 13.1832 30.7361C13.1832 31.2222 13.6096 31.613 14.1451 31.613C14.9483 31.613 15.3846 30.6027 14.8094 30.0498C14.6607 29.9164 14.4921 29.802 14.4128 29.802C14.3434 29.802 14.2343 29.7829 14.155 29.7543C14.0856 29.7353 13.8873 29.7734 13.7088 29.8496Z" fill="#191D40"/>
<path d="M12.9849 36.655C11.0712 36.8838 10.9522 36.9124 10.9224 37.1125C10.8828 37.3889 11.2596 39.2952 11.567 40.3341C11.8645 41.3254 12.7569 43.5939 12.8858 43.6701C12.975 43.7178 16.7133 42.0784 16.872 41.9259C16.9116 41.8878 16.7926 41.4874 16.5943 41.049C16.1283 39.991 15.6226 38.2658 15.4639 37.2078C15.3548 36.5597 15.2953 36.3786 15.1763 36.3881C15.0871 36.3977 14.1054 36.512 12.9849 36.655Z" fill="#191D40"/>
<path d="M53.1938 37.9318C53.0153 38.0748 52.9162 38.275 52.8765 38.542C52.8269 38.8948 52.8567 38.971 53.1244 39.238C53.759 39.8482 54.7308 39.4763 54.7308 38.6183C54.7308 38.275 54.6812 38.1606 54.4234 37.9604C54.0367 37.6458 53.5508 37.6362 53.1938 37.9318Z" fill="#191D40"/>
<path d="M49.753 44.366C49.2274 45.2143 47.4029 47.1683 46.332 48.0165L45.9155 48.3501L47.3137 50.0372L48.7118 51.7147L49.1184 51.4192C49.8125 50.895 51.7758 48.9506 52.46 48.1023C53.2037 47.1873 53.6896 46.4915 53.6301 46.4439C53.5408 46.3771 50.5859 44.4995 50.2587 44.3088L49.9116 44.1087L49.753 44.366Z" fill="#191D40"/>
<path d="M18.7858 46.9965C18.4685 47.3015 18.3891 47.6541 18.5379 48.0163C18.7957 48.6073 19.5691 48.7788 20.0947 48.3499C20.3227 48.1593 20.3723 48.0449 20.3723 47.6732C20.3723 47.3015 20.3227 47.1871 20.0947 46.9965C19.7079 46.6819 19.113 46.6819 18.7858 46.9965Z" fill="#191D40"/>
<path d="M23.4561 51.6383C22.8809 52.5914 22.3951 53.4302 22.3851 53.516C22.3554 53.6685 23.6544 54.3547 24.9633 54.879C26.7283 55.5843 29.1378 56.261 29.1973 56.0704C29.2271 56.0132 29.4254 55.1458 29.6436 54.1546C29.8617 53.1538 30.06 52.2483 30.0898 52.1435C30.1294 51.9719 30.0699 51.9242 29.6634 51.8194C28.5429 51.543 26.7382 50.9044 25.7268 50.4278C25.1219 50.1419 24.6063 49.9131 24.5666 49.9131C24.5369 49.9131 24.0312 50.6947 23.4561 51.6383Z" fill="#191D40"/>
<path d="M38.5481 52.3435C38.0027 52.6295 37.9928 53.5254 38.5183 53.859C39.3513 54.3833 40.3627 53.535 39.9165 52.6962C39.6487 52.2006 39.1034 52.0576 38.5481 52.3435Z" fill="#191D40"/>
<path d="M86.5111 25.9322C86.0748 26.1229 85.8467 26.4088 85.7971 26.8663C85.7575 27.1904 85.7971 27.3333 85.9756 27.5525C86.4813 28.1721 87.2746 28.1911 87.8001 27.6002C88.286 27.0379 88.0381 26.2277 87.2944 25.9322C86.8978 25.7702 86.8879 25.7702 86.5111 25.9322Z" fill="#191D40"/>
<path d="M121.564 25.961C120.622 26.4281 120.741 27.7053 121.762 28.0008C122.288 28.1533 122.823 27.9055 123.091 27.3813C123.259 27.0381 123.269 26.9714 123.14 26.6283C122.892 25.9515 122.188 25.656 121.564 25.961Z" fill="#191D40"/>
<path d="M128.386 29.6779L128.356 31.2792L127.146 31.3078L125.927 31.3364V31.994V32.6612H127.166H128.396L128.425 36.7311C128.455 40.639 128.465 40.8296 128.663 41.2394C128.911 41.7541 129.347 42.1926 129.863 42.4404C130.171 42.5929 130.448 42.6215 131.43 42.6119C132.193 42.6119 132.759 42.5548 133.016 42.469L133.413 42.3355L133.383 41.6683C133.363 41.2966 133.334 40.9916 133.324 40.9821C133.324 40.9725 133.046 41.0583 132.719 41.1632C131.965 41.4015 131.043 41.3633 130.607 41.0583C130.012 40.658 129.992 40.4769 129.992 36.3784V32.6612H131.628H133.264V31.994V31.3268H131.628H129.992L129.972 29.7256L129.942 28.1338L129.179 28.1052L128.405 28.0767L128.386 29.6779Z" fill="#191D40"/>
</svg>
