<svg width="32" height="32" viewBox="0 0 32 32" fill="none" xmlns="http://www.w3.org/2000/svg">
<circle cx="16" cy="16" r="15" fill="#777881" stroke="#777881" stroke-width="0.5"/>
<path d="M21.5401 10.91C20.5201 10.44 19.4301 10.1 18.2801 9.90003C18.2601 9.90003 18.2401 9.91003 18.2301 9.92003C18.1001 10.18 17.9401 10.5 17.8301 10.76C16.6167 10.58 15.3834 10.58 14.1701 10.76C14.0601 10.5 13.9001 10.18 13.7601 9.93003C13.7554 9.92085 13.7482 9.91317 13.7394 9.90786C13.7305 9.90256 13.7204 9.89985 13.7101 9.90003C12.5701 10.1 11.4701 10.44 10.4501 10.91C10.4401 10.91 10.4301 10.92 10.4301 10.93C8.36006 14.03 7.79006 17.05 8.07006 20.04C8.07006 20.05 8.08006 20.07 8.09006 20.08C9.46006 21.09 10.7801 21.7 12.0901 22.1C12.1101 22.11 12.1301 22.1 12.1501 22.08C12.4601 21.66 12.7301 21.22 12.9701 20.75C12.9801 20.72 12.9701 20.69 12.9401 20.68C12.5001 20.51 12.0901 20.31 11.6901 20.09C11.6501 20.06 11.6501 20.02 11.6701 20L11.9201 19.81C11.9301 19.8 11.9501 19.8 11.9701 19.8C14.5901 21 17.4201 21 20.0101 19.8C20.0301 19.79 20.0501 19.79 20.0601 19.81C20.1401 19.88 20.2201 19.94 20.3101 20C20.3401 20.02 20.3401 20.07 20.3101 20.09C19.9101 20.32 19.5001 20.52 19.0601 20.68C19.0301 20.69 19.0201 20.72 19.0301 20.75C19.2701 21.22 19.5401 21.66 19.8501 22.08C19.8601 22.1 19.8901 22.11 19.9101 22.1C21.2201 21.7 22.5401 21.09 23.9101 20.08C23.9201 20.07 23.9301 20.06 23.9301 20.04C24.2601 16.59 23.3701 13.59 21.5601 10.93C21.5601 10.92 21.5501 10.92 21.5401 10.91V10.91ZM13.3501 18.22C12.5601 18.22 11.9101 17.5 11.9101 16.61C11.9101 15.72 12.5501 15 13.3501 15C14.1501 15 14.8001 15.73 14.7801 16.61C14.7801 17.5 14.1501 18.22 13.3501 18.22ZM18.6601 18.22C17.8701 18.22 17.2201 17.5 17.2201 16.61C17.2301 15.72 17.8601 15 18.6601 15C19.4701 15 20.1101 15.73 20.1001 16.61C20.1001 17.5 19.4701 18.22 18.6601 18.22Z" fill="#191D40"/>
</svg>
