<svg width="299" height="104" viewBox="0 0 299 104" fill="none" xmlns="http://www.w3.org/2000/svg">
<rect x="-5.92499" y="-8.2771" width="316.8" height="119.744" fill="white"/>
<path d="M-15 50.7026V118.405H150H315V50.7026V-17H150H-15V50.7026ZM58.425 1.04082C67.8713 1.85365 76.245 4.66881 83.8144 9.54578C96.6225 17.7732 104.873 30.3225 107.203 45.0525C107.657 47.9668 107.822 53.5574 107.533 56.551C105.099 82.1452 83.8763 102.01 57.3731 103.517C40.2544 104.488 23.4038 97.2321 12.5344 84.207C9.39938 80.4601 5.85188 74.3936 4.07812 69.7545C2.22188 64.9172 1.12875 59.2869 0.943126 53.6764C0.303751 33.6531 12.0188 15.0968 30.87 6.19534C39.5119 2.1312 49.4119 0.267639 58.425 1.04082ZM285.259 21.7778C291.096 22.9277 295.716 26.8729 297.716 32.3644L298.397 34.2478V53.7755C298.397 75.8012 298.5 74.2747 296.747 77.6647C295.674 79.7662 294.231 81.5306 292.457 82.9184C291.054 84.0286 288.167 85.4758 286.228 86.0309C285.053 86.368 280.948 86.3878 195.334 86.4274L105.656 86.4869V85.6939V84.9009H194.818C283.217 84.9009 284.001 84.9009 285.63 84.5044C286.517 84.2863 288.043 83.7312 289.013 83.2752C292.498 81.6496 295.427 78.0612 296.438 74.2747C296.829 72.8076 296.85 71.9948 296.85 53.9738C296.85 35.9528 296.829 35.14 296.438 33.6729C295.406 29.7674 292.478 26.2781 288.806 24.5732C285.197 22.8881 294.499 23.0467 194.653 23.0467H105.656V22.2537V21.4606H194.653C275.235 21.4606 283.815 21.5003 285.259 21.7778ZM146.308 33.1773C148.598 33.7125 151.444 35.0607 153.094 36.3691C154.641 37.6181 155.651 38.8076 155.486 39.2041C155.342 39.5609 151.877 42.0787 151.506 42.0787C151.361 42.0787 150.66 41.5038 149.938 40.8099C148.536 39.442 146.123 38.1732 144.039 37.7172C141.441 37.1423 137.254 37.8956 134.552 39.442C131.747 41.0478 129.251 44.3586 128.323 47.7685C127.684 50.0286 127.684 53.8548 128.323 56.1545C129.808 61.5271 133.995 65.2939 139.481 66.186C144.452 66.9988 148.453 65.6706 151.341 62.2408C151.856 61.6263 152.393 61.1108 152.516 61.1108C152.764 61.1108 155.816 63.1528 156.167 63.5691C156.579 64.0251 156.27 64.6 154.785 66.1067C152.516 68.4064 150.083 69.7744 146.659 70.6665C144.246 71.3009 139.791 71.3009 137.109 70.6665C134.676 70.0916 131.108 68.3866 129.334 66.979C124.487 63.1131 121.826 57.0467 122.218 50.7423C122.363 48.4426 122.919 46.0437 123.683 44.3784C124.157 43.3475 124.26 43.2484 124.776 43.3079C125.271 43.3674 125.353 43.4467 125.333 43.9621C125.312 44.2793 125.064 45.1913 124.776 45.9446C123.992 48.0659 123.724 50.0682 123.868 52.9429C124.178 59.8222 127.849 65.2146 134.16 68.0298C135.088 68.4659 136.429 68.9615 137.109 69.14C138.842 69.5959 143.256 69.7545 145.112 69.4373C148.288 68.9021 151.361 67.3954 153.465 65.3137L154.579 64.2233L154.104 63.8665C152.888 62.9744 152.908 62.9744 151.238 64.5207C148.659 66.9195 146.123 67.8513 142.121 67.8513C139.399 67.8513 137.378 67.4548 135.253 66.5032C131.994 65.056 129.478 62.6175 127.911 59.4257C126.591 56.7295 126.384 55.6986 126.405 51.8921C126.405 48.7598 126.446 48.4029 126.982 46.8367C127.539 45.1714 128.633 43.0502 129.416 42.0787C130.448 40.7901 132.592 38.9067 133.913 38.1534C137.006 36.3691 141.049 35.5959 144.122 36.1907C146.226 36.607 149.134 37.9749 150.619 39.2636L151.753 40.2548L152.578 39.6402C153.032 39.3032 153.444 38.986 153.506 38.9464C153.795 38.7085 150.949 36.607 149.258 35.814C146.783 34.6443 144.947 34.2676 141.853 34.2875C136.717 34.2875 132.366 36.0321 128.921 39.4222C128.261 40.0764 127.622 40.7505 127.457 40.9487C127.044 41.5038 126.199 41.3254 126.116 40.6712C126.075 40.2945 126.364 39.8583 127.333 38.8472C130.179 35.8338 133.851 33.8711 138.038 33.0583C140.244 32.642 144.266 32.6816 146.308 33.1773ZM221.445 33.435C222.332 33.7324 223.487 34.2082 224.003 34.4857C225.281 35.2193 227.55 37.2811 227.55 37.737C227.55 38.0939 224.003 40.8892 223.549 40.8892C223.425 40.8892 222.827 40.3936 222.229 39.779C221.569 39.105 220.703 38.4706 219.96 38.1534C218.908 37.6776 218.558 37.6181 216.413 37.6181C214.288 37.6181 213.917 37.6776 212.886 38.1335C210.782 39.0851 209.606 40.6513 209.441 42.6933C209.194 45.8257 210.906 47.3918 216.536 49.1959C224.168 51.6542 226.849 53.6764 227.859 57.7802C228.726 61.2892 227.777 64.5802 225.178 67.2368C223.652 68.7831 221.878 69.8338 219.609 70.5674C218.166 71.0233 217.629 71.1026 215.278 71.1026C211.339 71.1026 208.451 70.2105 205.646 68.1091C204.368 67.1376 203.006 65.6309 203.006 65.1749C203.006 64.937 206.43 62.3994 207.049 62.1615C207.214 62.1021 207.544 62.3003 207.791 62.5977C209.318 64.3621 209.978 64.937 211.133 65.4723C214.35 66.9988 218.248 66.6618 220.62 64.6397C222.084 63.4303 222.497 62.5184 222.497 60.6152C222.497 59.2472 222.414 58.8904 221.94 58.1172C221.198 56.8881 219.63 55.8968 217.011 54.965C214.783 54.172 214.329 53.7755 215.072 53.1808C215.361 52.9627 215.629 52.9825 216.887 53.379C220.187 54.3901 222.435 55.8572 223.363 57.6216C224.085 58.9499 224.25 61.3884 223.755 62.8158C222.683 65.8886 219.465 67.8315 215.484 67.8513C212.329 67.8513 209.998 66.9988 208.059 65.1353L206.904 64.0251L205.873 64.6991L204.842 65.3732L206.038 66.4636C208.369 68.5849 211.38 69.6554 215.072 69.6554C217.547 69.6752 219.238 69.2986 221.259 68.2875C225.034 66.4041 227.076 62.7959 226.519 58.9499C225.921 54.8064 223.652 52.9825 216.103 50.6233C210.081 48.7201 207.936 46.7971 207.915 43.2286C207.915 40.0169 209.627 37.7569 213.009 36.5277C214.02 36.1709 214.659 36.0717 216.413 36.0717C219.424 36.0717 221.053 36.6665 223.013 38.4309L223.734 39.0851L224.724 38.3516L225.714 37.6181L224.828 36.8647C220.599 33.2962 212.453 33.316 208.328 36.8846C204.718 40.0367 204.326 45.9446 207.523 49.1761C208.472 50.1475 208.472 50.1872 208.101 50.6828C207.709 51.1983 207.111 50.9604 206.121 49.8898C204.636 48.2642 203.831 46.0239 203.831 43.5656C203.852 39.4023 206.059 35.9528 209.874 34.1487C212.267 33.0187 213.69 32.7609 217.031 32.8402C219.403 32.8997 220.063 32.979 221.445 33.435ZM165.881 34.7236C167.841 36.0916 167.799 38.5697 165.819 39.9773C165.386 40.2746 164.933 40.3936 164.128 40.3936C161.034 40.3936 159.735 36.6665 162.21 34.8822C162.581 34.6047 163.076 34.3469 163.303 34.2875C163.984 34.109 165.324 34.3271 165.881 34.7236ZM238.11 34.3469C239.038 34.6047 240.276 35.8735 240.441 36.8053C240.853 38.9067 238.543 40.9289 236.439 40.3143C234.851 39.8781 233.758 38.2525 234.047 36.8053C234.212 35.933 235.429 34.6047 236.295 34.3668C237.161 34.1289 237.244 34.1289 238.11 34.3469ZM254.239 39.2239C254.507 39.4816 254.569 40.0764 254.569 42.5347V45.5481L258.075 45.5878C260.014 45.6076 261.891 45.6076 262.262 45.6076C266.057 45.5878 268.099 45.6869 268.326 45.905C268.573 46.1429 269.254 47.8478 273.255 58.0379C274.328 60.754 275.256 63.133 275.318 63.2916C275.379 63.4502 276.122 61.765 276.988 59.5248C277.834 57.2846 278.638 55.3417 278.762 55.2029C279.092 54.8263 279.834 55.0047 279.896 55.4805C279.938 55.7184 279.587 56.8286 279.154 57.9586C278.721 59.0886 277.854 61.3091 277.256 62.8951C276.638 64.4811 276.06 65.8886 275.957 66.0274C275.833 66.1662 275.565 66.2653 275.338 66.2257C274.864 66.1464 275.173 66.8799 269.233 51.793L267.398 47.1341L266.036 47.0746L264.675 47.0152L265.026 47.8677C265.211 48.3435 267.336 53.4187 269.769 59.1679C272.183 64.9172 274.163 69.7347 274.163 69.8735C274.163 70.2303 272.079 75.4443 271.523 76.4951C270.966 77.5458 269.646 78.6758 268.656 78.9534C268.223 79.0921 267.233 79.1516 266.49 79.112L265.129 79.0525L265.046 79.786C264.964 80.698 265.026 80.7376 267.315 80.7376C269.439 80.7376 270.718 80.2618 271.935 79.0327C273.152 77.7837 273.915 76.1977 278.391 65.3137C282.598 55.1038 282.681 54.9452 283.196 55.0047C283.526 55.0443 283.774 55.2029 283.815 55.421C283.918 55.877 275.586 76.0986 274.616 77.7639C272.636 81.2134 270.244 82.4822 266.243 82.2642C263.252 82.1056 263.169 82.0263 263.561 79.3499C263.706 78.319 263.829 77.4467 263.829 77.4467C263.953 77.2286 264.613 77.2484 265.17 77.4665C266.098 77.8432 267.831 77.8432 268.553 77.4863C269.769 76.8717 270.285 76.0193 271.749 72.2723L272.698 69.8735L270.326 64.2432C264.015 49.3149 263.582 48.3236 262.654 47.2531C262.262 46.7773 262.241 46.7773 262.056 47.1539C261.932 47.3522 261.767 47.9668 261.684 48.5219C261.602 49.0572 261.437 49.6321 261.334 49.751C261.169 49.9493 260.22 50.0088 257.848 50.0088H254.569V57.2846C254.569 63.8268 254.61 64.6595 254.94 65.2741C255.126 65.6507 255.518 66.0869 255.806 66.2257C256.528 66.5825 258.591 66.4239 259.787 65.9085C261.334 65.2542 261.478 65.393 261.664 67.9703C261.726 68.9219 261.684 69.5166 261.499 69.7347C261.107 70.27 258.611 70.8251 256.611 70.8251C253.434 70.8251 251.475 69.7942 250.299 67.4945L249.722 66.3644L249.66 58.1767L249.598 50.0088H247.288C245.741 50.0088 244.875 49.9295 244.71 49.7709C244.545 49.6123 244.463 48.8589 244.463 47.6892C244.463 45.4292 244.442 45.449 247.433 45.449H249.619V42.3761C249.619 39.6799 249.66 39.3032 249.99 39.1248C250.176 39.0058 251.145 38.9067 252.135 38.9067C253.496 38.9067 253.991 38.986 254.239 39.2239ZM189.023 45.1318C192.013 45.6472 194.138 46.9953 195.334 49.1761C196.551 51.3767 196.613 52.0309 196.571 61.547L196.509 70.1312L194.364 70.1907C193.024 70.2303 192.137 70.1709 191.951 70.0321C191.745 69.8537 191.663 68.1884 191.621 61.6461C191.559 53.6566 191.539 53.4583 191.085 52.3481C190.487 50.9405 189.538 50.1277 188.012 49.6916C184.794 48.7994 181.309 50.4647 180.133 53.498C179.411 55.3021 179.288 56.8286 179.288 63.5295C179.288 71.063 179.514 70.4286 176.812 70.4286C174.193 70.4286 174.338 70.6467 174.338 66.4041C174.338 62.7761 174.42 62.3003 175.08 62.3003C175.224 62.3003 175.493 62.4391 175.658 62.6175C175.926 62.8752 175.988 63.4502 175.988 65.8886V68.8426H176.916H177.844V62.34C177.823 55.3219 177.906 54.4892 178.896 52.4671C179.721 50.7819 180.917 49.533 182.443 48.8193C186.218 47.035 190.466 48.0263 192.116 51.0991C193.086 52.8834 193.148 53.498 193.251 61.3487L193.354 68.8426H194.282H195.189L195.128 60.6548C195.045 52.8437 195.024 52.4274 194.591 51.1586C193.766 48.7796 191.745 47.1341 189.084 46.6583C185.083 45.9446 181.804 47.1738 179.246 50.3458C179.04 50.6035 178.772 50.8018 178.628 50.8018C177.947 50.7819 177.761 50.4251 177.679 48.74L177.576 47.035H176.689H175.781L175.926 52.5265C176.049 57.919 176.029 58.0379 175.616 58.3948C175.286 58.6723 175.101 58.712 174.791 58.5534C174.42 58.3749 174.399 57.9983 174.276 52.1499C174.152 46.4997 174.173 45.9248 174.482 45.6869C174.709 45.5481 175.513 45.449 176.648 45.449C178.834 45.449 179.288 45.7265 179.288 47.0548V47.8677L180.071 47.2927C181.68 46.0834 183.33 45.3697 185.166 45.0723C186.671 44.8344 187.249 44.8344 189.023 45.1318ZM166.376 45.7662C166.665 46.0437 166.706 47.4117 166.706 57.8C166.706 68.1091 166.665 69.5959 166.376 69.9924C166.088 70.3889 165.902 70.4286 164.211 70.4286C161.385 70.4286 161.55 70.8251 161.55 64.0053C161.55 58.7318 161.571 58.3551 161.942 57.919C162.272 57.5225 162.416 57.4828 162.726 57.6612C163.076 57.8595 163.097 58.3155 163.159 63.3709L163.2 68.8426H164.128H165.056V57.9388V47.035H164.128H163.2V50.3656C163.2 53.7953 163.118 54.172 162.334 54.172C161.674 54.172 161.55 53.4781 161.55 49.87C161.55 45.33 161.488 45.449 164.128 45.449C165.613 45.449 166.129 45.5283 166.376 45.7662ZM239.327 45.6472C239.698 45.8455 239.719 46.1032 239.719 50.0881C239.719 54.5685 239.657 54.9056 238.749 54.7271C238.419 54.6677 238.378 54.3306 238.316 50.8414L238.275 47.035H237.244H236.213V57.9388V68.8426H237.244H238.275V67.0583C238.275 65.5714 238.337 65.2542 238.646 65.0956C238.873 64.9767 239.141 64.9767 239.368 65.0956C239.657 65.2741 239.719 65.6111 239.719 67.4548C239.719 68.6245 239.657 69.7347 239.595 69.9131C239.409 70.3889 235.078 70.3889 234.893 69.9131C234.831 69.7347 234.769 64.263 234.769 57.7207V45.8257L235.243 45.6472C235.883 45.4093 238.832 45.4093 239.327 45.6472ZM287.651 46.0041C287.796 46.4402 286.434 49.8105 285.981 50.1475C285.754 50.326 285.548 50.326 285.259 50.1872C284.784 49.9493 284.826 49.6321 285.465 48.0659L285.919 47.035H284.619H283.32L282.825 48.3633C282.289 49.87 281.835 50.4846 281.34 50.3061C280.763 50.0881 280.763 49.6717 281.402 48.0064C282.371 45.4292 282.041 45.6472 284.991 45.6472C287.259 45.6472 287.548 45.6869 287.651 46.0041Z" fill="#191D40"/>
<path d="M49.4531 2.03187C38.2125 3.14207 28.3538 7.24588 19.6913 14.4226C10.6163 21.9165 4.32563 33.0185 2.42813 44.8542C1.9125 48.0658 1.78875 54.4892 2.20125 57.8396C3.35625 67.2764 6.82125 75.5038 12.9056 83.2158C14.6794 85.4362 18.9488 89.5995 21.4031 91.4829C29.0963 97.4106 37.8412 100.979 47.7619 102.268C50.4637 102.605 56.775 102.644 59.7862 102.347C65.1281 101.792 71.13 100.206 75.8531 98.1441C92.1675 90.9674 103.346 76.7528 106.11 59.6239C106.646 56.2933 106.749 49.0967 106.316 46.1428C104.522 34.0891 99.3037 24.1171 90.5794 16.0086C82.68 8.67329 72.6562 3.95491 61.8075 2.4482C58.4662 1.9724 52.1756 1.77414 49.4531 2.03187ZM68.2631 6.7106C69.6037 7.08728 71.625 7.76133 72.7594 8.19749C75.4819 9.24821 79.3387 11.2109 79.4212 11.5876C79.5037 12.0237 74.5125 20.271 74.1619 20.271C73.9969 20.271 72.7594 19.7357 71.3981 19.1013C69.2531 18.0902 65.8087 16.8809 62.8387 16.1275C62.3644 16.0086 61.9312 15.7905 61.8694 15.6319C61.8075 15.4733 61.89 14.9182 62.055 14.4027C62.3437 13.4313 63.4987 8.27679 63.7256 6.98815C63.9731 5.54092 64.2206 5.54092 68.2631 6.7106ZM46.2975 11.1514C47.1019 11.9246 47.1225 11.9841 47.04 12.9753C46.9369 13.8476 46.8131 14.1054 46.1737 14.6605C45.5756 15.1958 45.2662 15.3147 44.5031 15.3147C41.9662 15.3147 40.9762 11.9841 43.1212 10.6954C43.4306 10.517 44.0906 10.3584 44.5856 10.3584C45.3487 10.3584 45.5962 10.4576 46.2975 11.1514ZM26.58 18.0307C27.9 19.6564 29.3025 21.3019 29.6944 21.7182C30.0656 22.1147 30.375 22.6104 30.375 22.8086C30.375 22.987 29.8594 23.5421 29.22 24.0378C27.57 25.3066 24.9094 28.0424 23.1563 30.2629C22.1869 31.5317 21.5475 32.1661 21.3206 32.1264C20.8256 32.0273 13.05 27.0314 12.9056 26.6943C12.7406 26.278 14.865 23.4827 17.7938 20.2908C19.485 18.4471 23.3625 15.1165 23.7956 15.1165C24.0019 15.1165 25.2188 16.4051 26.58 18.0307ZM59.9719 17.2774C67.9537 18.4273 74.6981 21.8768 80.6175 27.864C85.0931 32.3841 88.2487 38.0343 89.6512 44.1008C91.4456 51.7731 90.5175 59.5247 86.97 66.6618C82.7006 75.2262 74.9662 81.8082 65.6437 84.782C61.4362 86.1301 59.7037 86.368 54.5062 86.3878C50.4225 86.3878 49.5769 86.3283 47.4937 85.912C38.1919 84.0683 30.1894 79.112 24.7444 71.8163C23.0738 69.5364 20.7225 65.0758 19.8563 62.4787C16.3913 52.1696 18 41.3451 24.3319 32.1661C26.5387 28.994 30.5812 25.0885 33.8813 23.0069C38.9756 19.7555 43.6781 18.0109 49.5562 17.1981C52.32 16.8016 56.8781 16.8412 59.9719 17.2774ZM87.0731 23.2051C88.29 24.0774 88.3931 25.9212 87.3 26.9917C85.0931 29.0932 81.5869 26.397 83.2781 23.899C84.1237 22.6698 85.8769 22.3328 87.0731 23.2051ZM99.2419 32.5427C99.9019 33.8116 101.077 36.825 101.737 38.9264C102.707 42.0786 103.552 47.0349 103.099 47.0349C102.975 47.0349 94.6012 48.046 93.8794 48.1451C93.2812 48.2244 92.8687 48.1848 92.7862 48.0658C92.7037 47.9469 92.4769 46.8763 92.25 45.7066C91.7137 42.8716 90.9506 40.4133 89.9606 38.1731C89.5275 37.162 89.1562 36.1906 89.1562 36.032C89.1562 35.8535 89.7337 35.4769 90.6206 35.1002C91.4456 34.7433 93.5081 33.8314 95.22 33.0582C96.9319 32.2652 98.4581 31.6704 98.6025 31.7299C98.7469 31.7696 99.0356 32.1462 99.2419 32.5427ZM14.5144 43.4466C15.2156 44.1008 15.3188 44.3387 15.3188 45.0921C15.3188 47.0944 13.0706 48.2839 11.3794 47.1737C10.5544 46.6384 10.1625 45.9842 10.1625 45.0921C10.1625 43.6448 11.1938 42.6932 12.8231 42.6734C13.5863 42.6734 13.8338 42.7725 14.5144 43.4466ZM15.8138 56.6898C15.8756 56.888 16.1231 58.0577 16.35 59.2868C16.8244 61.7848 17.67 64.5009 18.7425 66.9195C19.32 68.2082 19.4025 68.565 19.1963 68.7434C19.0519 68.8822 17.8556 69.4571 16.5563 70.0321C15.2569 70.607 13.3594 71.4595 12.3488 71.9353C11.3381 72.4111 10.3481 72.8076 10.1213 72.8076C9.70875 72.8076 9.06938 71.5983 7.95563 68.8426C6.71813 65.7102 4.94438 58.1172 5.35688 57.7207C5.52188 57.5621 13.7719 56.432 15.1538 56.3726C15.5044 56.3527 15.7519 56.4717 15.8138 56.6898ZM96.5812 59.4454C97.3444 59.8816 97.8187 60.7143 97.8187 61.6064C97.8187 63.1131 96.7669 64.0845 95.1169 64.0845C94.395 64.0845 94.1269 63.9656 93.4669 63.3113C92.7656 62.6373 92.6625 62.439 92.6625 61.6064C92.6625 60.7737 92.7656 60.5755 93.4669 59.9014C94.1475 59.2472 94.395 59.1282 95.1375 59.1282C95.6119 59.1282 96.2512 59.267 96.5812 59.4454ZM91.3219 74.8694C95.6531 77.6053 95.7562 77.6846 95.7562 78.0216C95.7562 78.3586 92.58 82.4029 90.8681 84.2467C89.0737 86.1697 85.2375 89.4607 84.7837 89.4607C84.33 89.4607 78.1837 82.1452 78.2662 81.7289C78.3075 81.5505 79.1119 80.7575 80.0812 79.9248C82.0612 78.2397 84.3919 75.7219 85.7944 73.7394C86.3306 73.0058 86.9081 72.4111 87.0731 72.4111C87.2587 72.4111 89.1769 73.5213 91.3219 74.8694ZM25.6519 78.7155C26.7863 79.9248 26.5594 81.7091 25.1775 82.5219C23.3831 83.5726 21.2588 82.4426 21.2588 80.4403C21.2588 78.8344 22.3519 77.9026 24.0638 78.0414C24.8888 78.1009 25.1981 78.2198 25.6519 78.7155ZM36.9131 85.4758C39.5531 86.7446 42.0281 87.6368 44.6681 88.291C45.5962 88.5091 46.4419 88.7668 46.5244 88.8461C46.6069 88.9452 46.215 91.1062 45.6581 93.6834C45.0806 96.2607 44.6062 98.4216 44.6062 98.4613C44.6062 98.9173 41.9456 98.4018 38.5219 97.2718C34.6031 96.003 29.1375 93.4455 29.1375 92.8904C29.1375 92.5138 34.0875 84.3062 34.3144 84.3062C34.3969 84.3062 35.5725 84.8414 36.9131 85.4758ZM65.8706 89.5598C67.1081 90.1744 67.6237 91.6613 66.9844 92.831C65.9119 94.8135 62.9006 94.6351 62.1787 92.5336C61.4362 90.3925 63.7669 88.5289 65.8706 89.5598Z" fill="#191D40"/>
<path d="M63.6844 10.1011C63.2513 12.0439 62.8594 13.9868 62.7975 14.4428L62.715 15.2556L64.2207 15.6124C66.51 16.1279 69.3975 17.1786 71.8725 18.3879L74.1 19.4585L74.4713 18.9232C74.76 18.5267 77.6269 13.8282 78.7819 11.9052C78.8644 11.7466 77.3175 10.9536 74.2031 9.54597C71.5425 8.35647 65.9119 6.59204 64.7569 6.59204C64.5507 6.59204 64.2413 7.60312 63.6844 10.1011Z" fill="#191D40"/>
<path d="M43.6368 11.0525C42.3581 11.5877 42.1106 13.1539 43.1625 14.1649C43.74 14.7002 43.905 14.7597 44.6681 14.6605C46.7925 14.383 47.1637 11.6274 45.1837 10.9732C44.4 10.7155 44.4412 10.7155 43.6368 11.0525Z" fill="#191D40"/>
<path d="M20.1862 18.9231C16.4737 22.4916 13.2768 26.3377 13.7306 26.7342C14.2875 27.2496 21.1143 31.3931 21.2793 31.3336C21.3825 31.2939 22.0425 30.5208 22.7643 29.589C23.4656 28.6572 25.3012 26.7143 26.8068 25.2671C28.6631 23.4829 29.5087 22.5511 29.385 22.3925C28.0443 20.6479 23.8575 15.7114 23.7337 15.7114C23.6306 15.7114 22.0425 17.1587 20.1862 18.9231Z" fill="#191D40"/>
<path d="M48.9375 18.2096C36.5625 20.0732 26.1056 28.0826 21.5268 39.2441C14.1225 57.2255 23.9812 77.6652 42.9975 83.7912C47.2256 85.1591 48.8756 85.3772 54.1968 85.3772C58.3631 85.3772 59.2087 85.3375 61.1062 84.941C68.4075 83.4145 73.9968 80.5002 79.1737 75.5043C85.2993 69.5964 88.7231 62.4593 89.3625 54.2121C90.1256 44.7357 86.64 35.3584 79.8337 28.4989C74.6362 23.2452 68.7375 20.093 61.3331 18.5467C58.2393 17.9123 52.0106 17.7338 48.9375 18.2096ZM54.5268 19.082C54.8568 19.2604 54.9187 19.5181 54.9187 20.8266C54.9187 21.7583 54.8156 22.4721 54.6712 22.6108C54.5268 22.7496 53.7431 22.8487 52.65 22.8487C51.6806 22.8686 50.2368 22.9677 49.4325 23.1065C48.6281 23.2452 47.865 23.3245 47.7412 23.2849C47.4731 23.2056 46.7925 20.3904 46.9368 19.9939C47.0606 19.6965 49.1231 19.3199 51.9281 19.1018C52.9593 19.0027 53.8668 18.9234 53.9493 18.9035C54.0525 18.9035 54.3 18.9828 54.5268 19.082ZM63.2718 20.1723C65.6437 20.8067 67.1493 21.3618 67.2525 21.6394C67.3762 21.9764 66.2212 24.6528 65.9118 24.7718C65.7675 24.8312 64.7981 24.5933 63.7462 24.2563C62.6943 23.9391 61.4775 23.6021 61.0443 23.5228C59.7862 23.3047 59.6625 23.0866 59.9925 21.5204C60.1575 20.7869 60.3225 20.0534 60.3843 19.9146C60.5081 19.5578 61.1887 19.6172 63.2718 20.1723ZM42.1518 23.1461C42.4818 23.8995 42.7087 24.6528 42.6468 24.7718C42.6056 24.9105 42.0693 25.2277 41.4712 25.4855C40.8731 25.7432 39.7387 26.3181 38.955 26.7741C38.1918 27.2301 37.4081 27.6068 37.2018 27.6068C37.0162 27.6068 36.4593 27.012 35.9643 26.2785L35.0568 24.9502L35.7581 24.3951C36.7068 23.6219 40.6875 21.6592 41.1618 21.7187C41.4093 21.7385 41.7393 22.2143 42.1518 23.1461ZM74.4506 25.3863C76.6162 26.9525 78.4312 28.5584 78.4312 28.9549C78.4312 29.3514 76.3893 31.3735 75.9975 31.3735C75.8325 31.3735 75.1518 30.8779 74.4918 30.2832C73.8112 29.6884 72.6768 28.7963 71.9343 28.3006C71.1918 27.7852 70.5937 27.2301 70.5937 27.0517C70.6143 26.556 72.2025 24.2365 72.5325 24.2365C72.6975 24.2365 73.5637 24.7519 74.4506 25.3863ZM57.2493 24.7321C59.2912 24.8709 62.9625 25.7828 65.2106 26.6948C73.8525 30.2039 80.205 37.7771 82.0818 46.8173C82.5768 49.1765 82.5562 54.2319 82.0818 56.6109C81.2981 60.3381 79.7306 63.9859 77.5443 67.0389C76.1212 69.0413 72.8418 72.2728 70.8206 73.6605C62.4056 79.509 51.7631 80.4407 42.2137 76.1783C38.46 74.513 34.3968 71.3014 31.695 67.8716C30.045 65.7701 27.8793 61.6267 27.1987 59.2278C26.3325 56.2144 26.1675 54.9853 26.1675 51.6943C26.1675 46.9363 26.91 43.9427 29.1375 39.601C33.4893 31.1555 42.1725 25.5053 52.1343 24.6726C53.8668 24.5339 54.63 24.5339 57.2493 24.7321ZM31.9218 29.5298C32.5406 30.1642 33.0562 30.759 33.0562 30.8581C33.0562 30.9572 32.4168 31.7502 31.6537 32.6423C30.87 33.5147 29.9212 34.6645 29.55 35.18C29.1787 35.7152 28.7868 36.1316 28.6837 36.1316C28.5806 36.1316 27.9 35.7747 27.1781 35.3187C26.3325 34.8033 25.8375 34.387 25.8375 34.1491C25.8375 33.4948 30.0656 28.3998 30.6018 28.3998C30.705 28.3998 31.3031 28.9152 31.9218 29.5298ZM83.3193 34.6843C84.7425 36.9444 85.7118 38.9666 85.5262 39.2639C85.2787 39.6208 82.5975 40.6913 82.2468 40.5724C82.0818 40.5129 81.855 40.1759 81.7312 39.819C81.6075 39.4622 81.0093 38.3322 80.3906 37.3211C79.7718 36.31 79.2562 35.398 79.2562 35.2593C79.2768 34.9817 81.7312 33.356 82.1437 33.356C82.3293 33.356 82.845 33.9508 83.3193 34.6843ZM24.8475 39.8389C25.6931 40.1362 26.25 40.4733 26.25 40.6517C26.25 40.8103 25.9818 41.8016 25.6312 42.8523C25.3012 43.903 24.93 45.1322 24.8062 45.5882C24.6825 46.064 24.4762 46.4406 24.3318 46.4406C23.61 46.4406 21.2175 45.8261 21.0731 45.608C20.8875 45.3304 20.9493 45.0132 21.5475 42.9712C22.29 40.4534 22.785 39.3036 23.1356 39.3036C23.3006 39.3036 24.0843 39.5415 24.8475 39.8389ZM87.4856 44.815C87.795 45.3701 88.1662 48.2447 88.2075 50.2471L88.2281 52.0908H86.3718H84.5156L84.3712 50.3065C84.3093 49.3153 84.1237 47.8284 83.9793 46.9759C83.8556 46.1234 83.7937 45.3899 83.8556 45.3106C83.9587 45.2313 86.5368 44.5573 87.135 44.4779C87.2175 44.4581 87.3825 44.6167 87.4856 44.815ZM24.2081 53.3001C24.2906 54.4103 24.4556 55.917 24.6 56.6308C24.7443 57.3643 24.8062 58.0185 24.7443 58.078C24.6618 58.1375 23.8987 58.3555 23.0118 58.5538C21.5681 58.8908 21.3825 58.8908 21.1762 58.6331C20.7431 58.078 20.0625 52.2098 20.3306 51.496C20.4543 51.2383 20.7637 51.1987 22.2693 51.2383L24.0843 51.2978L24.2081 53.3001ZM85.9181 57.2255C86.6812 57.3643 87.4237 57.5824 87.5268 57.6815C87.9187 58.0582 86.2068 63.748 85.6087 64.1048C85.485 64.1841 84.9075 64.0652 84.33 63.8471C83.7525 63.629 83.0718 63.3713 82.8243 63.292C82.1437 63.0144 82.1231 62.836 82.6593 61.2897C82.9481 60.4768 83.3193 59.2873 83.505 58.6331C83.9175 57.0074 83.9587 56.948 84.2475 56.948C84.3918 56.9678 85.155 57.0867 85.9181 57.2255ZM27.1987 64.3229C27.6112 65.1159 28.2712 66.2856 28.6631 66.9002C29.055 67.5346 29.3025 68.1293 29.2406 68.2483C29.0343 68.5853 26.7037 70.0325 26.3943 70.0325C25.9818 70.0325 22.95 64.9771 22.95 64.2833C22.95 64.0057 25.3631 62.9351 25.9818 62.9153C26.3531 62.8955 26.6006 63.173 27.1987 64.3229ZM81.4012 68.0897C82.2881 68.625 82.7625 69.0413 82.7625 69.2792C82.7625 70.0127 78.5343 74.9888 77.9156 74.9888C77.6887 74.9888 75.3375 72.7684 75.3375 72.5305C75.3375 72.471 75.8943 71.8168 76.5956 71.0833C77.2968 70.3497 78.2662 69.1801 78.7818 68.506C79.2975 67.8121 79.7925 67.257 79.875 67.257C79.9781 67.257 80.6587 67.6337 81.4012 68.0897ZM34.5618 73.5614C35.6137 74.3941 36.81 75.306 37.2431 75.5638C37.6556 75.8017 38.0062 76.1585 38.0062 76.3369C38.0062 76.7929 36.3562 79.1521 36.0468 79.1521C35.3043 79.1521 30.1687 74.9888 30.1687 74.3941C30.1687 74.0967 32.2312 72.0151 32.5406 72.0151C32.6025 72.0151 33.51 72.7089 34.5618 73.5614ZM72.5325 77.0506C73.0481 77.7643 73.44 78.4582 73.3781 78.597C73.1512 79.1521 68.3043 81.7294 67.5 81.7294C67.17 81.7294 66.9225 81.4122 66.4481 80.4011C66.1181 79.6676 65.8706 78.934 65.8912 78.7754C65.9325 78.597 66.9843 77.9428 68.2218 77.3084C69.48 76.674 70.5731 76.0792 70.6968 75.9603C71.13 75.5439 71.625 75.8413 72.5325 77.0506ZM44.6268 79.1125C45.5756 79.4297 46.8543 79.8063 47.4525 79.9253C48.03 80.0641 48.5868 80.2821 48.6487 80.3813C48.8962 80.7381 48.2775 83.5335 47.9268 83.6722C47.205 83.93 41.3062 82.1259 41.3062 81.6302C41.3062 81.4915 41.5331 80.8967 41.7806 80.3218C42.0487 79.727 42.3375 79.0926 42.3993 78.8944C42.5643 78.4582 42.5643 78.4582 44.6268 79.1125ZM61.3331 81.2932C61.4568 81.9276 61.5806 82.681 61.6012 83.018C61.6218 83.5533 61.5393 83.6326 60.6525 83.8507C60.0956 83.9696 58.4456 84.1877 56.9812 84.3066C53.5987 84.604 53.64 84.6238 53.7225 82.4431L53.7843 80.8372L55.4343 80.6786C56.3418 80.5795 57.8681 80.4011 58.8375 80.2623C59.8068 80.1235 60.6937 80.0641 60.8381 80.1037C60.9825 80.1434 61.1887 80.6786 61.3331 81.2932Z" fill="#191D40"/>
<path d="M49.3088 19.9543C48.4426 20.0732 47.6588 20.2516 47.5763 20.3309C47.432 20.4697 47.7826 22.5908 47.9888 22.7891C48.0301 22.8287 48.6076 22.7891 49.247 22.6701C49.907 22.5512 51.3095 22.3926 52.3613 22.3331L54.3001 22.1944V20.9455V19.6768L52.6088 19.6966C51.6601 19.7164 50.1751 19.8155 49.3088 19.9543Z" fill="#191D40"/>
<path d="M60.5081 21.4803C60.3638 22.1543 60.2813 22.7094 60.3225 22.749C60.3638 22.7688 61.1681 22.9869 62.1169 23.2248C63.0656 23.4627 64.1588 23.7799 64.5713 23.9385C64.9631 24.0971 65.3963 24.2358 65.5406 24.2358C65.7263 24.2358 66.675 22.3525 66.675 21.9561C66.675 21.7776 61.6013 20.271 61.0031 20.271C60.8794 20.271 60.6525 20.8063 60.5081 21.4803Z" fill="#191D40"/>
<path d="M38.8107 23.2645C37.7175 23.8196 36.5832 24.454 36.2738 24.6919L35.7169 25.128L36.4594 26.1788L37.2019 27.2295L38.0682 26.714C38.5425 26.4167 39.6769 25.8219 40.605 25.3858L42.2757 24.5729L41.76 23.4033C41.4713 22.7689 41.1413 22.2534 41.0175 22.2534C40.8938 22.2534 39.9038 22.7094 38.8107 23.2645Z" fill="#191D40"/>
<path d="M71.9138 25.6835C71.6044 26.1395 71.2538 26.6153 71.1713 26.7342C71.0682 26.873 71.5219 27.329 72.4088 27.9634C73.1925 28.5185 74.3063 29.3909 74.9044 29.9063L75.9975 30.8381L76.9463 29.9063L77.9157 28.9745L76.8844 28.0824C75.9357 27.2695 73.275 25.2672 72.7388 24.9698C72.5944 24.8905 72.2438 25.1878 71.9138 25.6835Z" fill="#191D40"/>
<path d="M48.9375 26.0406C41.7394 27.5275 35.6344 31.4331 31.7363 37.0635C28.3538 41.9603 26.91 46.877 27.1575 52.6858C27.4256 59.5651 30.0244 65.2946 35.0156 70.132C38.9137 73.9186 43.5337 76.3175 48.9787 77.3682C51.5775 77.8837 56.1769 77.9233 58.8787 77.4674C64.6125 76.5157 69.7069 73.879 73.8525 69.7553C77.565 66.0282 79.7925 62.0036 80.9475 56.8887C81.5869 54.0339 81.5662 49.3948 80.9269 46.5003C79.8131 41.4448 77.5238 37.2815 73.8112 33.594C70.0988 29.9065 65.8706 27.5672 60.6525 26.2983C58.8581 25.8622 57.9506 25.7829 54.7125 25.7036C51.4331 25.6441 50.6287 25.6838 48.9375 26.0406ZM41.8837 45.7866C41.925 46.0443 42.1519 46.2426 42.5025 46.3417C43.1831 46.5003 44.6063 47.3726 44.6063 47.6303C44.6063 47.7295 44.3794 47.9674 44.0906 48.1458C43.6163 48.4432 43.5544 48.4432 43.0388 48.0467C42.0488 47.2933 41.925 47.4519 41.925 49.3551L41.9456 51.0998L42.9769 51.5756C44.2556 52.1505 44.8125 52.9435 44.8125 54.1727C44.8125 55.4415 44.2144 56.294 42.9563 56.8094C42.2756 57.087 41.925 57.3447 41.8837 57.6223C41.8425 57.88 41.6363 58.0584 41.3681 58.0981C40.9969 58.1575 40.8938 58.0782 40.8938 57.7016C40.8938 57.3051 40.7288 57.1861 39.9863 56.9879C38.9963 56.75 37.8 55.8975 37.8 55.4415C37.8 55.2829 38.0269 55.0648 38.295 54.926C38.7281 54.7476 38.8931 54.7873 39.45 55.2432C40.6256 56.175 40.7906 56.0164 40.7288 53.9942L40.6669 52.21L39.7181 51.7738C38.5631 51.2385 38.0063 50.4059 38.0063 49.2164C38.0063 47.7493 38.7694 46.8968 40.5431 46.3615C40.7494 46.302 40.8938 46.0641 40.8938 45.7469C40.8938 45.3108 40.9763 45.2315 41.3681 45.291C41.6569 45.3306 41.8425 45.509 41.8837 45.7866ZM53.2069 46.3417C54.1556 46.4805 55.7437 47.4717 55.7437 47.9079C55.7437 48.0665 55.4962 48.3837 55.2075 48.6018L54.6712 48.9983L53.8875 48.4035C51.4537 46.5201 47.9062 48.463 47.9062 51.6945C47.9062 53.3598 48.9994 55.0252 50.4431 55.5406C51.7631 56.0164 53.805 55.6001 54.3619 54.7278C54.6712 54.2718 55.1662 54.2718 55.7644 54.7476L56.2594 55.1441L55.5581 55.838C53.5987 57.7809 49.9481 57.7016 47.865 55.6596C46.7925 54.6088 46.38 53.6969 46.2975 52.0315C46.1944 50.2869 46.5863 49.1371 47.6588 47.9872C48.7313 46.8373 50.9175 45.9254 52.0312 46.1434C52.1962 46.1831 52.7325 46.2624 53.2069 46.3417ZM59.1469 51.6945V56.8491L58.4044 56.9086C57.8269 56.9482 57.6412 56.8887 57.5587 56.6112C57.4969 56.4129 57.4969 54.2916 57.5175 51.8928C57.5587 49.4939 57.6 47.2735 57.6 46.9761C57.6 46.4606 57.6412 46.421 58.3837 46.4805L59.1469 46.5399V51.6945ZM66.4481 50.3662L69.2531 54.1925L69.315 50.3266L69.3562 46.4408H70.1813H71.0062V51.6945V56.9482H70.0781H69.1706L66.3244 53.0228L63.4781 49.1172L63.4162 53.0228L63.375 56.9482H62.55H61.725V51.8333C61.725 49.0181 61.7869 46.6391 61.8694 46.5598C61.9519 46.4805 62.385 46.4408 62.8387 46.4805C63.6431 46.5399 63.6844 46.5598 66.4481 50.3662Z" fill="#191D40"/>
<path d="M41.0999 46.1429C41.0999 46.4601 40.9556 46.698 40.7493 46.7574C38.9962 47.2927 38.4187 47.947 38.4187 49.3744C38.4187 50.4251 39.1406 51.238 40.4399 51.6147C40.9143 51.7534 41.3062 51.9319 41.3062 52.031C41.3062 52.1301 41.3887 52.15 41.5124 52.0905C41.7599 51.9319 42.8324 52.4672 43.3687 53.0223C44.3793 54.073 43.5749 56.1547 42.1518 56.1547C41.6156 56.1547 41.5331 56.0754 41.4506 55.5005L41.3681 54.866L41.3474 55.5005C41.3062 56.0754 41.2237 56.1547 40.7493 56.1547C40.4399 56.1547 39.8418 55.9168 39.4087 55.6194C38.7693 55.2031 38.5631 55.1436 38.3568 55.3418C38.1712 55.5401 38.1918 55.6591 38.5218 55.897C39.0993 56.3133 40.1924 56.7495 40.6874 56.7495C40.9968 56.7495 41.0999 56.8882 41.0999 57.2451C41.0999 57.5226 41.2031 57.7407 41.3062 57.7407C41.4299 57.7407 41.5124 57.5425 41.5124 57.2847C41.5124 56.9279 41.7187 56.7693 42.5643 56.4917C43.7606 56.0754 44.3999 55.2625 44.3999 54.1721C44.3999 53.1412 43.8018 52.3482 42.5849 51.8129C41.5949 51.3768 41.5124 51.2776 41.4918 50.6234C41.4712 50.0683 41.4299 50.0286 41.3681 50.4053C41.2237 51.119 40.9968 51.2578 40.4606 51.0001C38.8725 50.2071 38.5425 48.8788 39.6356 47.8082C40.1512 47.3126 40.3987 47.2333 41.3474 47.2333C42.0899 47.2333 42.6468 47.3522 43.0387 47.6099C43.6368 47.9866 43.9874 47.9866 43.9874 47.6099C43.9874 47.3126 42.6881 46.6385 42.0899 46.6385C41.6156 46.6385 41.5124 46.5592 41.5124 46.1429C41.5124 45.8653 41.4299 45.6472 41.3062 45.6472C41.2031 45.6472 41.0999 45.8653 41.0999 46.1429Z" fill="#191D40"/>
<path d="M40.0068 48.0463C39.5943 48.3436 39.45 48.641 39.45 49.1366C39.45 49.8502 40.0275 50.6035 40.605 50.6035C40.8731 50.6035 40.8937 50.3855 40.77 49.1564C40.7081 48.3833 40.605 47.7093 40.5843 47.6696C40.5637 47.6498 40.2956 47.8084 40.0068 48.0463Z" fill="#191D40"/>
<path d="M41.9249 54.1721C41.9249 55.4409 41.9868 55.7581 42.2343 55.7581C42.7499 55.7581 43.3687 55.0047 43.3687 54.3902C43.3687 53.5378 43.1831 53.2008 42.5231 52.8638L41.9249 52.5664V54.1721Z" fill="#191D40"/>
<path d="M50.6906 46.8171C47.3906 47.6299 45.8231 51.02 47.3493 54.0334C48.7725 56.7891 52.6293 57.5821 54.96 55.5996C55.5787 55.0841 55.125 54.9255 54.4856 55.441C52.4231 57.1063 49.2056 56.3529 47.8443 53.8946C47.2256 52.7448 47.2256 50.6235 47.865 49.4737C49.1231 47.174 52.2375 46.381 54.2175 47.8877C54.5681 48.1454 54.8156 48.2049 54.96 48.0661C55.29 47.7489 53.5368 46.8766 52.3406 46.7576C51.7837 46.6982 51.0412 46.7378 50.6906 46.8171Z" fill="#191D40"/>
<path d="M58.2187 51.7932C58.2187 54.8265 58.3012 56.5513 58.4249 56.5513C58.5487 56.5513 58.6312 54.8265 58.6312 51.7932C58.6312 48.76 58.5487 47.0352 58.4249 47.0352C58.3012 47.0352 58.2187 48.76 58.2187 51.7932Z" fill="#191D40"/>
<path d="M62.3438 51.7734C62.3438 54.767 62.4262 56.5513 62.55 56.5513C62.6737 56.5513 62.7769 54.886 62.7975 52.2492C62.8387 49.3746 62.9419 47.9273 63.0862 47.8877C63.21 47.848 64.7362 49.7909 66.4687 52.1897C68.655 55.223 69.7275 56.5513 69.9956 56.5513C70.3669 56.5513 70.3875 56.2935 70.3875 51.7932C70.3875 48.8195 70.305 47.0352 70.1812 47.0352C70.0575 47.0352 69.9544 48.641 69.9337 51.1985C69.8925 53.7758 69.7894 55.3816 69.6656 55.4014C69.5625 55.4212 68.0775 53.5775 66.4069 51.2778C64.035 48.0661 63.2306 47.1145 62.8387 47.0749L62.3438 47.0154V51.7734Z" fill="#191D40"/>
<path d="M29.6532 30.0256C28.3744 31.3936 26.4563 33.8321 26.4563 34.0898C26.4563 34.3079 28.23 35.5371 28.5394 35.5371C28.6013 35.5371 28.8282 35.319 28.9932 35.0613C29.1788 34.8036 29.9625 33.8123 30.7669 32.8607C31.5713 31.909 32.2313 30.9772 32.2313 30.7988C32.2313 30.6204 31.8807 30.1247 31.4269 29.7084L30.6432 28.9749L29.6532 30.0256Z" fill="#191D40"/>
<path d="M80.9063 34.5846C80.3907 34.9018 79.9369 35.219 79.9163 35.2388C79.8751 35.2785 80.3494 36.1904 80.9682 37.2609C81.5869 38.3315 82.1644 39.402 82.2469 39.6597C82.3913 40.1554 82.5357 40.1554 84.1238 39.4813L85.0313 39.0848L84.2888 37.6574C83.3401 35.8534 82.1644 33.9502 81.9788 33.9502C81.8963 33.9502 81.4219 34.2476 80.9063 34.5846Z" fill="#191D40"/>
<path d="M23.1769 40.0561C22.9706 40.4129 21.8362 44.0015 21.63 44.8937C21.5269 45.3695 21.5681 45.4488 22.0631 45.5678C22.3931 45.6273 22.9706 45.7661 23.3625 45.8652C24.105 46.0436 24.3937 45.8652 24.3937 45.2506C24.3937 45.0721 24.6825 44.0412 25.0537 42.9705C25.425 41.8801 25.7137 40.9086 25.7344 40.8293C25.7344 40.7302 25.1981 40.4526 24.5381 40.1949C23.4656 39.7587 23.3419 39.7587 23.1769 40.0561Z" fill="#191D40"/>
<path d="M86.2687 45.2105C85.9799 45.2501 85.4231 45.3493 85.0106 45.4682L84.2887 45.6466L84.5362 47.0741C84.6806 47.8671 84.8249 49.235 84.8662 50.1073L84.9281 51.6933L86.3512 51.7528L87.7537 51.8123L87.6299 50.0676C87.4649 47.9265 87.0731 45.3889 86.9081 45.2303C86.8462 45.1708 86.5574 45.1708 86.2687 45.2105Z" fill="#191D40"/>
<path d="M20.8875 52.8239C20.8875 54.0332 21.4237 58.1171 21.5887 58.2757C21.63 58.3351 22.2487 58.2559 22.9499 58.1171L24.2287 57.8792L24.1049 57.0664C24.0431 56.6104 23.8781 55.2028 23.7543 53.9142L23.5068 51.5947H22.1868H20.8875V52.8239Z" fill="#191D40"/>
<path d="M84.3093 57.7805C84.2681 57.9193 84.0412 58.7321 83.7937 59.5846C83.5668 60.437 83.2368 61.4679 83.0718 61.8446C82.7006 62.6772 82.7212 62.697 84.165 63.2521L85.2375 63.6685L85.5468 62.9746C85.8975 62.1618 86.5781 59.9811 86.8462 58.7916L87.0525 57.9589L86.0212 57.7607C84.7218 57.4831 84.4125 57.4831 84.3093 57.7805Z" fill="#191D40"/>
<path d="M24.6619 63.8076C23.6306 64.2834 23.5894 64.323 23.7956 64.8385C24.105 65.6315 25.7756 68.5261 26.2087 69.0613L26.6006 69.5173L27.6731 68.8631C28.2712 68.4864 28.7044 68.0899 28.6631 67.9709C28.6012 67.8322 28.0856 66.94 27.5081 65.9685C26.91 64.9773 26.3944 63.986 26.3325 63.7283C26.1881 63.193 26.0231 63.193 24.6619 63.8076Z" fill="#191D40"/>
<path d="M78.9676 69.1395C78.4107 69.8532 77.5238 70.9238 76.9669 71.4987L75.9769 72.5495L76.9669 73.4813L77.9569 74.4131L79.0913 73.1641C80.3082 71.8159 82.1438 69.4765 82.1438 69.2584C82.1438 69.1593 80.1844 67.8508 80.0194 67.8508C79.9782 67.8508 79.5038 68.4258 78.9676 69.1395Z" fill="#191D40"/>
<path d="M31.6125 73.521L30.6843 74.4329L31.8187 75.4241C33.3862 76.8316 35.9025 78.5959 36.1293 78.4571C36.2325 78.3977 36.6037 77.9219 36.9543 77.3668L37.5731 76.3955L36.2737 75.5034C35.5518 75.0078 34.4587 74.1554 33.8193 73.6003C33.2006 73.0651 32.6437 72.6091 32.6025 72.6091C32.5612 72.6091 32.1075 73.0254 31.6125 73.521Z" fill="#191D40"/>
<path d="M70.4493 76.7326C69.9956 77.03 68.8612 77.6248 67.9537 78.0411L66.3037 78.8143L66.7987 79.9246C67.0875 80.5194 67.3556 81.0547 67.4175 81.1142C67.665 81.3521 72.6562 78.6756 72.6562 78.279C72.6562 78.1403 72.3468 77.6248 71.9756 77.1093L71.295 76.1973L70.4493 76.7326Z" fill="#191D40"/>
<path d="M42.3375 80.2625C42.0694 80.8771 41.9456 81.4321 42.0488 81.5114C42.4613 81.8484 46.7719 83.1172 47.5144 83.1172C47.7619 83.1172 47.9063 82.8793 47.9888 82.3639C48.0713 81.9674 48.1744 81.3925 48.2363 81.1149C48.3394 80.6392 48.2569 80.5995 47.1638 80.3616C46.5244 80.2229 45.3488 79.8858 44.5444 79.6281C43.74 79.3704 43.0181 79.1523 42.9356 79.1523C42.8738 79.1523 42.585 79.6479 42.3375 80.2625Z" fill="#191D40"/>
<path d="M59.4563 80.7567C59.0644 80.836 57.7444 80.9749 56.5275 81.0542L54.3 81.193V82.5019V83.8108L55.4757 83.7513C57.3732 83.672 60.6113 83.2952 60.9 83.1167C61.1269 82.9779 61.1269 82.7399 60.9 81.7483C60.7557 81.074 60.5288 80.5386 60.405 80.5584C60.2813 80.5782 59.8482 80.6576 59.4563 80.7567Z" fill="#191D40"/>
<path d="M84.2269 23.7597C83.0719 24.6918 83.4844 26.5558 84.9075 27.0119C85.7532 27.2697 86.4544 27.0516 87.0732 26.298C88.0838 25.0487 87.0732 23.2441 85.3613 23.2441C85.0932 23.2441 84.5775 23.4821 84.2269 23.7597Z" fill="#191D40"/>
<path d="M94.1062 34.2075C91.4868 35.4168 90.105 36.1702 90.1256 36.3486C90.1462 36.5072 90.4968 37.3795 90.8887 38.3113C91.8375 40.5516 92.6006 43.1288 93.0131 45.488L93.3431 47.4309H94.0856C95.0962 47.4309 102.336 46.5189 102.48 46.3802C102.645 46.2216 102.026 42.7918 101.428 40.4723C100.624 37.4588 98.6437 32.3638 98.2518 32.3638C98.1693 32.3638 96.3131 33.1964 94.1062 34.2075Z" fill="#191D40"/>
<path d="M11.8744 43.3673C11.07 43.7043 10.7812 44.2 10.7812 45.2111C10.7812 46.2223 11.6681 47.0352 12.7819 47.0352C14.4525 47.0352 15.36 44.9336 14.1638 43.7837C13.8544 43.5061 13.5038 43.2682 13.3388 43.2682C13.1944 43.2682 12.9675 43.2285 12.8025 43.169C12.6581 43.1294 12.2456 43.2087 11.8744 43.3673Z" fill="#191D40"/>
<path d="M10.3688 57.5224C6.38814 57.9982 6.14064 58.0577 6.07876 58.474C5.99626 59.0489 6.78001 63.014 7.41939 65.175C8.03814 67.2368 9.89439 71.9552 10.1625 72.1138C10.3481 72.213 18.1238 68.803 18.4538 68.4858C18.5363 68.4065 18.2888 67.5738 17.8763 66.6619C16.9069 64.4613 15.855 60.8729 15.525 58.6723C15.2981 57.3241 15.1744 56.9475 14.9269 56.9673C14.7413 56.9871 12.6994 57.225 10.3688 57.5224Z" fill="#191D40"/>
<path d="M94.0031 60.1781C93.6319 60.4756 93.4256 60.892 93.3431 61.4473C93.24 62.1811 93.3019 62.3397 93.8588 62.895C95.1788 64.1642 97.2 63.3908 97.2 61.606C97.2 60.892 97.0969 60.6541 96.5606 60.2376C95.7562 59.5832 94.7456 59.5633 94.0031 60.1781Z" fill="#191D40"/>
<path d="M86.8463 73.5614C85.7531 75.3259 81.9581 79.39 79.7306 81.1545L78.8644 81.8484L81.7725 85.3574L84.6806 88.8467L85.5263 88.2321C86.97 87.1417 91.0538 83.0974 92.4769 81.3329C94.0238 79.4297 95.0344 77.9824 94.9106 77.8833C94.725 77.7445 88.5788 73.839 87.8981 73.4425L87.1763 73.0261L86.8463 73.5614Z" fill="#191D40"/>
<path d="M22.4344 79.0327C21.7744 79.6671 21.6094 80.4006 21.9187 81.154C22.455 82.3831 24.0637 82.74 25.1569 81.8478C25.6312 81.4513 25.7344 81.2134 25.7344 80.4403C25.7344 79.6671 25.6312 79.4292 25.1569 79.0327C24.3525 78.3784 23.115 78.3784 22.4344 79.0327Z" fill="#191D40"/>
<path d="M32.1487 88.6877C30.9525 90.6703 29.9418 92.4149 29.9212 92.5933C29.8593 92.9105 32.5612 94.3379 35.2837 95.4283C38.955 96.8954 43.9668 98.303 44.0906 97.9065C44.1525 97.7875 44.565 95.9834 45.0187 93.9216C45.4725 91.84 45.885 89.9566 45.9468 89.7385C46.0293 89.3816 45.9056 89.2825 45.06 89.0644C42.7293 88.4895 38.9756 87.1612 36.8718 86.1699C35.6137 85.5752 34.5412 85.0994 34.4587 85.0994C34.3968 85.0994 33.345 86.725 32.1487 88.6877Z" fill="#191D40"/>
<path d="M63.5401 90.1546C62.4057 90.7494 62.3851 92.613 63.4782 93.3068C65.2107 94.3972 67.3144 92.6328 66.3863 90.8881C65.8294 89.8572 64.6951 89.5598 63.5401 90.1546Z" fill="#191D40"/>
<path d="M163.303 35.2191C162.396 35.6156 161.921 36.2103 161.818 37.1619C161.736 37.836 161.818 38.1333 162.189 38.5893C163.241 39.8779 164.891 39.9176 165.984 38.6884C166.995 37.5188 166.479 35.8336 164.932 35.2191C164.107 34.8821 164.087 34.8821 163.303 35.2191Z" fill="#191D40"/>
<path d="M236.213 35.279C234.253 36.2505 234.501 38.9072 236.625 39.5218C237.718 39.839 238.832 39.3235 239.389 38.2331C239.739 37.5193 239.76 37.3806 239.492 36.6668C238.976 35.2592 237.512 34.6446 236.213 35.279Z" fill="#191D40"/>
<path d="M250.402 43.0101L250.34 46.3407L247.824 46.4002L245.287 46.4597V47.8276V49.2154H247.865H250.423L250.485 57.6807C250.547 65.809 250.567 66.2055 250.98 67.058C251.495 68.1286 252.403 69.0405 253.475 69.556C254.115 69.8732 254.692 69.9327 256.734 69.9128C258.322 69.9128 259.498 69.7939 260.034 69.6155L260.859 69.3379L260.797 67.9501C260.756 67.177 260.694 66.5426 260.674 66.5227C260.674 66.5029 260.096 66.6813 259.415 66.8994C257.848 67.395 255.93 67.3157 255.022 66.6813C253.785 65.8487 253.744 65.472 253.744 56.9472V49.2154H257.147H260.55V47.8276V46.4398H257.147H253.744L253.702 43.1092L253.64 39.7984L252.052 39.7389L250.444 39.6794L250.402 43.0101Z" fill="#191D40"/>
</svg>
