<svg width="32" height="32" viewBox="0 0 32 32" fill="none" xmlns="http://www.w3.org/2000/svg">
<circle cx="16" cy="16" r="15" fill="#777881" stroke="#777881" stroke-width="0.5"/>
<path d="M23.0355 11.6429C22.6406 12.2176 22.1517 12.7217 21.5892 13.1337C21.5983 13.2589 21.5983 13.384 21.5983 13.5086C21.5983 17.3212 18.6966 21.7137 13.3932 21.7137C11.7595 21.7137 10.2412 21.2406 8.9646 20.4189C9.1966 20.4457 9.42003 20.4549 9.66117 20.4549C11.0092 20.4549 12.2503 19.9995 13.2417 19.2229C12.6399 19.2119 12.0566 19.0133 11.5731 18.6548C11.0897 18.2962 10.7303 17.7956 10.5452 17.2229C10.724 17.2497 10.9023 17.2675 11.0897 17.2675C11.3486 17.2675 11.6075 17.2315 11.8486 17.1692C11.1956 17.0371 10.6084 16.683 10.1869 16.167C9.7653 15.6511 9.53534 15.0051 9.53603 14.3389V14.3029C9.93567 14.5257 10.3822 14.6512 10.8395 14.6692C10.4437 14.4059 10.1193 14.0488 9.89495 13.6298C9.67062 13.2108 9.55341 12.7428 9.55374 12.2675C9.55374 11.7315 9.6966 11.2406 9.94689 10.812C10.6712 11.7036 11.5749 12.433 12.5993 12.9529C13.6237 13.4728 14.7459 13.7715 15.8932 13.8297C15.8469 13.6126 15.823 13.3912 15.8217 13.1692C15.8216 12.7904 15.8961 12.4153 16.041 12.0653C16.1858 11.7154 16.3983 11.3974 16.6661 11.1295C16.9339 10.8617 17.2519 10.6493 17.6019 10.5044C17.9519 10.3595 18.327 10.285 18.7057 10.2852C19.1007 10.2841 19.4916 10.3644 19.854 10.5212C20.2165 10.6779 20.5428 10.9076 20.8126 11.196C21.4584 11.0715 22.0777 10.8358 22.6429 10.4995C22.4278 11.1659 21.977 11.731 21.3749 12.0886C21.9555 12.0263 22.5177 11.8652 23.0355 11.6423V11.6429Z" fill="#191D40"/>
</svg>
